<?xml version="1.0" encoding="utf-8" standalone="no"?>
<!DOCTYPE svg PUBLIC "-//W3C//DTD SVG 1.1//EN"
  "http://www.w3.org/Graphics/SVG/1.1/DTD/svg11.dtd">
<svg xmlns:xlink="http://www.w3.org/1999/xlink" width="1843.2pt" height="955.44pt" viewBox="0 0 1843.2 955.44" xmlns="http://www.w3.org/2000/svg" version="1.1">
 <metadata>
  <rdf:RDF xmlns:dc="http://purl.org/dc/elements/1.1/" xmlns:cc="http://creativecommons.org/ns#" xmlns:rdf="http://www.w3.org/1999/02/22-rdf-syntax-ns#">
   <cc:Work>
    <dc:type rdf:resource="http://purl.org/dc/dcmitype/StillImage"/>
    <dc:date>2025-12-29T08:32:56.754036</dc:date>
    <dc:format>image/svg+xml</dc:format>
    <dc:creator>
     <cc:Agent>
      <dc:title>Matplotlib v3.10.5, https://matplotlib.org/</dc:title>
     </cc:Agent>
    </dc:creator>
   </cc:Work>
  </rdf:RDF>
 </metadata>
 <defs>
  <style type="text/css">*{stroke-linejoin: round; stroke-linecap: butt}</style>
 </defs>
 <g id="figure_1">
  <g id="patch_1">
   <path d="M 0 955.44 
L 1843.2 955.44 
L 1843.2 0 
L 0 0 
z
" style="fill: #ffffff"/>
  </g>
  <g id="axes_1">
   <g id="FillBetweenPolyCollection_1">
    <path d="M 174.251084 168.697186 
L 174.251084 774.051052 
L 184.349096 774.051052 
L 194.447109 774.051052 
L 204.545121 774.051052 
L 214.643133 774.051052 
L 224.741146 774.051052 
L 234.839158 774.051052 
L 244.93717 774.051052 
L 255.035183 774.051052 
L 265.133195 774.051052 
L 275.231208 774.051052 
L 285.32922 774.051052 
L 295.427232 774.051052 
L 305.525245 774.051052 
L 315.623257 774.051052 
L 325.721269 774.051052 
L 335.819282 774.051052 
L 345.917294 774.051052 
L 356.015307 774.051052 
L 366.113319 774.051052 
L 376.211331 774.051052 
L 386.309344 774.051052 
L 396.407356 774.051052 
L 406.505369 774.051052 
L 416.603381 774.051052 
L 426.701393 774.051052 
L 436.799406 774.051052 
L 446.897418 774.051052 
L 456.99543 774.051052 
L 467.093443 774.051052 
L 477.191455 774.051052 
L 487.289468 774.051052 
L 497.38748 774.051052 
L 507.485492 774.051052 
L 517.583505 774.051052 
L 527.681517 774.051052 
L 537.779529 774.051052 
L 547.877542 774.051052 
L 557.975554 774.051052 
L 568.073567 774.051052 
L 578.171579 774.051052 
L 588.269591 774.051052 
L 598.367604 774.051052 
L 608.465616 774.051052 
L 618.563629 774.051052 
L 628.661641 774.051052 
L 638.759653 774.051052 
L 648.857666 774.051052 
L 658.955678 774.051052 
L 669.05369 774.051052 
L 679.151703 774.051052 
L 689.249715 774.051052 
L 699.347728 774.051052 
L 709.44574 774.051052 
L 719.543752 774.051052 
L 729.641765 774.051052 
L 739.739777 774.051052 
L 749.83779 774.051052 
L 759.935802 774.051052 
L 770.033814 774.051052 
L 780.131827 774.051052 
L 790.229839 774.051052 
L 800.327851 774.051052 
L 810.425864 774.051052 
L 820.523876 774.051052 
L 830.621889 774.051052 
L 840.719901 774.051052 
L 850.817913 774.051052 
L 860.915926 774.051052 
L 871.013938 774.051052 
L 881.11195 774.051052 
L 891.209963 774.051052 
L 901.307975 774.051052 
L 911.405988 774.051052 
L 921.504 774.051052 
L 931.602012 774.051052 
L 941.700025 774.051052 
L 951.798037 774.051052 
L 961.89605 774.051052 
L 971.994062 774.051052 
L 982.092074 774.051052 
L 992.190087 774.051052 
L 1002.288099 774.051052 
L 1012.386111 774.051052 
L 1022.484124 774.051052 
L 1032.582136 774.051052 
L 1042.680149 774.051052 
L 1052.778161 774.051052 
L 1062.876173 774.051052 
L 1072.974186 774.051052 
L 1083.072198 774.051052 
L 1093.17021 774.051052 
L 1103.268223 774.051052 
L 1113.366235 774.051052 
L 1123.464248 774.051052 
L 1133.56226 774.051052 
L 1143.660272 774.051052 
L 1153.758285 774.051052 
L 1163.856297 774.051052 
L 1173.95431 774.051052 
L 1184.052322 774.051052 
L 1194.150334 774.051052 
L 1204.248347 774.051052 
L 1214.346359 774.051052 
L 1224.444371 774.051052 
L 1234.542384 774.051052 
L 1244.640396 774.051052 
L 1254.738409 774.051052 
L 1264.836421 774.051052 
L 1274.934433 774.051052 
L 1285.032446 774.051052 
L 1295.130458 774.051052 
L 1305.228471 774.051052 
L 1315.326483 774.051052 
L 1325.424495 774.051052 
L 1335.522508 774.051052 
L 1345.62052 774.051052 
L 1355.718532 774.051052 
L 1365.816545 774.051052 
L 1375.914557 774.051052 
L 1386.01257 774.051052 
L 1396.110582 774.051052 
L 1406.208594 774.051052 
L 1416.306607 774.051052 
L 1426.404619 774.051052 
L 1436.502631 774.051052 
L 1446.600644 774.051052 
L 1456.698656 774.051052 
L 1466.796669 774.051052 
L 1476.894681 774.051052 
L 1486.992693 774.051052 
L 1497.090706 774.051052 
L 1507.188718 774.051052 
L 1517.286731 774.051052 
L 1527.384743 774.051052 
L 1537.482755 774.051052 
L 1547.580768 774.051052 
L 1557.67878 774.051052 
L 1567.776792 774.051052 
L 1577.874805 774.051052 
L 1587.972817 774.051052 
L 1598.07083 774.051052 
L 1608.168842 774.051052 
L 1618.266854 774.051052 
L 1628.364867 774.051052 
L 1638.462879 774.051052 
L 1648.560891 774.051052 
L 1658.658904 774.051052 
L 1668.756916 774.051052 
L 1668.756916 644.345872 
L 1668.756916 644.345872 
L 1658.658904 635.333315 
L 1648.560891 627.329157 
L 1638.462879 585.701231 
L 1628.364867 588.301007 
L 1618.266854 613.274611 
L 1608.168842 641.005554 
L 1598.07083 697.097687 
L 1587.972817 702.454801 
L 1577.874805 688.510548 
L 1567.776792 672.045301 
L 1557.67878 678.379301 
L 1547.580768 694.209047 
L 1537.482755 666.609407 
L 1527.384743 648.305934 
L 1517.286731 668.027466 
L 1507.188718 726.971475 
L 1497.090706 748.967154 
L 1486.992693 740.479805 
L 1476.894681 746.152043 
L 1466.796669 774.051052 
L 1456.698656 762.485988 
L 1446.600644 749.345303 
L 1436.502631 715.437924 
L 1426.404619 677.402415 
L 1416.306607 668.841537 
L 1406.208594 638.862708 
L 1396.110582 587.49744 
L 1386.01257 560.522796 
L 1375.914557 529.262461 
L 1365.816545 554.188797 
L 1355.718532 560.711871 
L 1345.62052 562.980766 
L 1335.522508 556.552229 
L 1325.424495 539.745598 
L 1315.326483 563.16984 
L 1305.228471 552.950808 
L 1295.130458 533.022945 
L 1285.032446 525.827606 
L 1274.934433 541.80441 
L 1264.836421 570.260138 
L 1254.738409 552.928299 
L 1244.640396 547.256061 
L 1234.542384 566.510159 
L 1224.444371 546.72035 
L 1214.346359 548.106897 
L 1204.248347 561.846318 
L 1194.150334 570.890387 
L 1184.052322 566.216042 
L 1173.95431 536.935739 
L 1163.856297 518.359159 
L 1153.758285 486.437063 
L 1143.660272 460.754429 
L 1133.56226 451.363723 
L 1123.464248 468.947662 
L 1113.366235 490.848803 
L 1103.268223 445.691485 
L 1093.17021 435.859605 
L 1083.072198 435.166332 
L 1072.974186 415.849209 
L 1062.876173 416.531979 
L 1052.778161 406.553041 
L 1042.680149 407.340852 
L 1032.582136 406.395479 
L 1022.484124 416.006772 
L 1012.386111 412.22528 
L 1002.288099 408.60135 
L 992.190087 420.576075 
L 982.092074 469.735472 
L 971.994062 455.397315 
L 961.89605 435.544481 
L 951.798037 427.50881 
L 941.700025 422.466821 
L 931.602012 400.754753 
L 921.504 381.658218 
L 911.405988 402.330375 
L 901.307975 435.166332 
L 891.209963 438.853287 
L 881.11195 432.078113 
L 871.013938 434.441546 
L 860.915926 431.342823 
L 850.817913 414.935349 
L 840.719901 375.418756 
L 830.621889 323.150132 
L 820.523876 308.234246 
L 810.425864 308.486345 
L 800.327851 342.708849 
L 790.229839 383.801064 
L 780.131827 352.456696 
L 770.033814 341.952551 
L 759.935802 357.025999 
L 749.83779 342.504018 
L 739.739777 324.620712 
L 729.641765 287.908726 
L 719.543752 305.335102 
L 709.44574 260.65047 
L 699.347728 207.473237 
L 689.249715 261.228198 
L 679.151703 276.327906 
L 669.05369 272.677716 
L 658.955678 268.449797 
L 648.857666 247.992975 
L 638.759653 230.146433 
L 628.661641 240.902678 
L 618.563629 230.713657 
L 608.465616 237.583368 
L 598.367604 235.503547 
L 588.269591 185.776926 
L 578.171579 180.482837 
L 568.073567 189.826273 
L 557.975554 201.800999 
L 547.877542 233.99095 
L 537.779529 214.83139 
L 527.681517 184.180296 
L 517.583505 167.531226 
L 507.485492 135.041906 
L 497.38748 123.57138 
L 487.289468 165.924092 
L 477.191455 173.466068 
L 467.093443 103.529472 
L 456.99543 108.524193 
L 446.897418 71.33952 
L 436.799406 104.979044 
L 426.701393 120.341356 
L 416.603381 161.780207 
L 406.505369 167.478705 
L 396.407356 175.015429 
L 386.309344 189.180269 
L 376.211331 235.99199 
L 366.113319 242.793424 
L 356.015307 213.570893 
L 345.917294 203.171789 
L 335.819282 218.045659 
L 325.721269 199.463826 
L 315.623257 180.188721 
L 305.525245 161.543864 
L 295.427232 179.833196 
L 285.32922 162.394699 
L 275.231208 168.07806 
L 265.133195 151.103296 
L 255.035183 166.408596 
L 244.93717 155.012195 
L 234.839158 144.586235 
L 224.741146 165.857128 
L 214.643133 163.382089 
L 204.545121 152.778431 
L 194.447109 133.147659 
L 184.349096 139.817791 
L 174.251084 168.697186 
z
" clip-path="url(#p5b99f1ae89)" style="fill: #1f77b4; fill-opacity: 0.15"/>
   </g>
   <g id="matplotlib.axis_1"/>
   <g id="patch_2">
    <path d="M 95.082667 774.051052 
L 95.082667 71.33952 
" style="fill: none; stroke: #000000; stroke-width: 0.8; stroke-linejoin: miter; stroke-linecap: square"/>
   </g>
   <g id="patch_3">
    <path d="M 95.082667 774.051052 
L 1747.925333 774.051052 
" style="fill: none; stroke: #000000; stroke-width: 0.8; stroke-linejoin: miter; stroke-linecap: square"/>
   </g>
   <g id="patch_4">
    <path d="M 95.082667 71.33952 
L 1747.925333 71.33952 
" style="fill: none; stroke: #000000; stroke-width: 0.8; stroke-linejoin: miter; stroke-linecap: square"/>
   </g>
  </g>
  <g id="axes_2">
   <g id="patch_5">
    <path d="M 95.082667 774.051052 
L 1747.925333 774.051052 
L 1747.925333 71.33952 
L 95.082667 71.33952 
L 95.082667 774.051052 
z
" style="fill: none; opacity: 0"/>
   </g>
   <g id="patch_6">
    <path d="M 170.211879 774.051052 
L 178.290289 774.051052 
L 178.290289 774.051052 
L 170.211879 774.051052 
z
" clip-path="url(#p5b99f1ae89)" style="fill: #1f77b4; opacity: 0.6"/>
   </g>
   <g id="patch_7">
    <path d="M 180.309891 774.051052 
L 188.388301 774.051052 
L 188.388301 769.130103 
L 180.309891 769.130103 
z
" clip-path="url(#p5b99f1ae89)" style="fill: #1f77b4; opacity: 0.6"/>
   </g>
   <g id="patch_8">
    <path d="M 190.407904 774.051052 
L 198.486313 774.051052 
L 198.486313 774.051052 
L 190.407904 774.051052 
z
" clip-path="url(#p5b99f1ae89)" style="fill: #1f77b4; opacity: 0.6"/>
   </g>
   <g id="patch_9">
    <path d="M 200.505916 774.051052 
L 208.584326 774.051052 
L 208.584326 697.776341 
L 200.505916 697.776341 
z
" clip-path="url(#p5b99f1ae89)" style="fill: #1f77b4; opacity: 0.6"/>
   </g>
   <g id="patch_10">
    <path d="M 210.603928 774.051052 
L 218.682338 774.051052 
L 218.682338 774.051052 
L 210.603928 774.051052 
z
" clip-path="url(#p5b99f1ae89)" style="fill: #1f77b4; opacity: 0.6"/>
   </g>
   <g id="patch_11">
    <path d="M 220.701941 774.051052 
L 228.780351 774.051052 
L 228.780351 774.051052 
L 220.701941 774.051052 
z
" clip-path="url(#p5b99f1ae89)" style="fill: #1f77b4; opacity: 0.6"/>
   </g>
   <g id="patch_12">
    <path d="M 230.799953 774.051052 
L 238.878363 774.051052 
L 238.878363 774.051052 
L 230.799953 774.051052 
z
" clip-path="url(#p5b99f1ae89)" style="fill: #1f77b4; opacity: 0.6"/>
   </g>
   <g id="patch_13">
    <path d="M 240.897965 774.051052 
L 248.976375 774.051052 
L 248.976375 732.222984 
L 240.897965 732.222984 
z
" clip-path="url(#p5b99f1ae89)" style="fill: #1f77b4; opacity: 0.6"/>
   </g>
   <g id="patch_14">
    <path d="M 250.995978 774.051052 
L 259.074388 774.051052 
L 259.074388 727.302035 
L 250.995978 727.302035 
z
" clip-path="url(#p5b99f1ae89)" style="fill: #1f77b4; opacity: 0.6"/>
   </g>
   <g id="patch_15">
    <path d="M 261.09399 774.051052 
L 269.1724 774.051052 
L 269.1724 774.051052 
L 261.09399 774.051052 
z
" clip-path="url(#p5b99f1ae89)" style="fill: #1f77b4; opacity: 0.6"/>
   </g>
   <g id="patch_16">
    <path d="M 271.192003 774.051052 
L 279.270413 774.051052 
L 279.270413 732.222984 
L 271.192003 732.222984 
z
" clip-path="url(#p5b99f1ae89)" style="fill: #1f77b4; opacity: 0.6"/>
   </g>
   <g id="patch_17">
    <path d="M 281.290015 774.051052 
L 289.368425 774.051052 
L 289.368425 774.051052 
L 281.290015 774.051052 
z
" clip-path="url(#p5b99f1ae89)" style="fill: #1f77b4; opacity: 0.6"/>
   </g>
   <g id="patch_18">
    <path d="M 291.388027 774.051052 
L 299.466437 774.051052 
L 299.466437 774.051052 
L 291.388027 774.051052 
z
" clip-path="url(#p5b99f1ae89)" style="fill: #1f77b4; opacity: 0.6"/>
   </g>
   <g id="patch_19">
    <path d="M 301.48604 774.051052 
L 309.56445 774.051052 
L 309.56445 729.76251 
L 301.48604 729.76251 
z
" clip-path="url(#p5b99f1ae89)" style="fill: #1f77b4; opacity: 0.6"/>
   </g>
   <g id="patch_20">
    <path d="M 311.584052 774.051052 
L 319.662462 774.051052 
L 319.662462 619.041155 
L 311.584052 619.041155 
z
" clip-path="url(#p5b99f1ae89)" style="fill: #1f77b4; opacity: 0.6"/>
   </g>
   <g id="patch_21">
    <path d="M 321.682065 774.051052 
L 329.760474 774.051052 
L 329.760474 547.687393 
L 321.682065 547.687393 
z
" clip-path="url(#p5b99f1ae89)" style="fill: #1f77b4; opacity: 0.6"/>
   </g>
   <g id="patch_22">
    <path d="M 331.780077 774.051052 
L 339.858487 774.051052 
L 339.858487 646.106375 
L 331.780077 646.106375 
z
" clip-path="url(#p5b99f1ae89)" style="fill: #1f77b4; opacity: 0.6"/>
   </g>
   <g id="patch_23">
    <path d="M 341.878089 774.051052 
L 349.956499 774.051052 
L 349.956499 707.618239 
L 341.878089 707.618239 
z
" clip-path="url(#p5b99f1ae89)" style="fill: #1f77b4; opacity: 0.6"/>
   </g>
   <g id="patch_24">
    <path d="M 351.976102 774.051052 
L 360.054512 774.051052 
L 360.054512 668.250646 
L 351.976102 668.250646 
z
" clip-path="url(#p5b99f1ae89)" style="fill: #1f77b4; opacity: 0.6"/>
   </g>
   <g id="patch_25">
    <path d="M 362.074114 774.051052 
L 370.152524 774.051052 
L 370.152524 774.051052 
L 362.074114 774.051052 
z
" clip-path="url(#p5b99f1ae89)" style="fill: #1f77b4; opacity: 0.6"/>
   </g>
   <g id="patch_26">
    <path d="M 372.172126 774.051052 
L 380.250536 774.051052 
L 380.250536 771.590577 
L 372.172126 771.590577 
z
" clip-path="url(#p5b99f1ae89)" style="fill: #1f77b4; opacity: 0.6"/>
   </g>
   <g id="patch_27">
    <path d="M 382.270139 774.051052 
L 390.348549 774.051052 
L 390.348549 774.051052 
L 382.270139 774.051052 
z
" clip-path="url(#p5b99f1ae89)" style="fill: #1f77b4; opacity: 0.6"/>
   </g>
   <g id="patch_28">
    <path d="M 392.368151 774.051052 
L 400.446561 774.051052 
L 400.446561 774.051052 
L 392.368151 774.051052 
z
" clip-path="url(#p5b99f1ae89)" style="fill: #1f77b4; opacity: 0.6"/>
   </g>
   <g id="patch_29">
    <path d="M 402.466164 774.051052 
L 410.544573 774.051052 
L 410.544573 774.051052 
L 402.466164 774.051052 
z
" clip-path="url(#p5b99f1ae89)" style="fill: #1f77b4; opacity: 0.6"/>
   </g>
   <g id="patch_30">
    <path d="M 412.564176 774.051052 
L 420.642586 774.051052 
L 420.642586 774.051052 
L 412.564176 774.051052 
z
" clip-path="url(#p5b99f1ae89)" style="fill: #1f77b4; opacity: 0.6"/>
   </g>
   <g id="patch_31">
    <path d="M 422.662188 774.051052 
L 430.740598 774.051052 
L 430.740598 774.051052 
L 422.662188 774.051052 
z
" clip-path="url(#p5b99f1ae89)" style="fill: #1f77b4; opacity: 0.6"/>
   </g>
   <g id="patch_32">
    <path d="M 432.760201 774.051052 
L 440.838611 774.051052 
L 440.838611 774.051052 
L 432.760201 774.051052 
z
" clip-path="url(#p5b99f1ae89)" style="fill: #1f77b4; opacity: 0.6"/>
   </g>
   <g id="patch_33">
    <path d="M 442.858213 774.051052 
L 450.936623 774.051052 
L 450.936623 761.748679 
L 442.858213 761.748679 
z
" clip-path="url(#p5b99f1ae89)" style="fill: #1f77b4; opacity: 0.6"/>
   </g>
   <g id="patch_34">
    <path d="M 452.956225 774.051052 
L 461.034635 774.051052 
L 461.034635 774.051052 
L 452.956225 774.051052 
z
" clip-path="url(#p5b99f1ae89)" style="fill: #1f77b4; opacity: 0.6"/>
   </g>
   <g id="patch_35">
    <path d="M 463.054238 774.051052 
L 471.132648 774.051052 
L 471.132648 774.051052 
L 463.054238 774.051052 
z
" clip-path="url(#p5b99f1ae89)" style="fill: #1f77b4; opacity: 0.6"/>
   </g>
   <g id="patch_36">
    <path d="M 473.15225 774.051052 
L 481.23066 774.051052 
L 481.23066 771.590577 
L 473.15225 771.590577 
z
" clip-path="url(#p5b99f1ae89)" style="fill: #1f77b4; opacity: 0.6"/>
   </g>
   <g id="patch_37">
    <path d="M 483.250263 774.051052 
L 491.328673 774.051052 
L 491.328673 774.051052 
L 483.250263 774.051052 
z
" clip-path="url(#p5b99f1ae89)" style="fill: #1f77b4; opacity: 0.6"/>
   </g>
   <g id="patch_38">
    <path d="M 493.348275 774.051052 
L 501.426685 774.051052 
L 501.426685 774.051052 
L 493.348275 774.051052 
z
" clip-path="url(#p5b99f1ae89)" style="fill: #1f77b4; opacity: 0.6"/>
   </g>
   <g id="patch_39">
    <path d="M 503.446287 774.051052 
L 511.524697 774.051052 
L 511.524697 774.051052 
L 503.446287 774.051052 
z
" clip-path="url(#p5b99f1ae89)" style="fill: #1f77b4; opacity: 0.6"/>
   </g>
   <g id="patch_40">
    <path d="M 513.5443 774.051052 
L 521.62271 774.051052 
L 521.62271 774.051052 
L 513.5443 774.051052 
z
" clip-path="url(#p5b99f1ae89)" style="fill: #1f77b4; opacity: 0.6"/>
   </g>
   <g id="patch_41">
    <path d="M 523.642312 774.051052 
L 531.720722 774.051052 
L 531.720722 742.064883 
L 523.642312 742.064883 
z
" clip-path="url(#p5b99f1ae89)" style="fill: #1f77b4; opacity: 0.6"/>
   </g>
   <g id="patch_42">
    <path d="M 533.740325 774.051052 
L 541.818734 774.051052 
L 541.818734 727.302035 
L 533.740325 727.302035 
z
" clip-path="url(#p5b99f1ae89)" style="fill: #1f77b4; opacity: 0.6"/>
   </g>
   <g id="patch_43">
    <path d="M 543.838337 774.051052 
L 551.916747 774.051052 
L 551.916747 774.051052 
L 543.838337 774.051052 
z
" clip-path="url(#p5b99f1ae89)" style="fill: #1f77b4; opacity: 0.6"/>
   </g>
   <g id="patch_44">
    <path d="M 553.936349 774.051052 
L 562.014759 774.051052 
L 562.014759 774.051052 
L 553.936349 774.051052 
z
" clip-path="url(#p5b99f1ae89)" style="fill: #1f77b4; opacity: 0.6"/>
   </g>
   <g id="patch_45">
    <path d="M 564.034362 774.051052 
L 572.112772 774.051052 
L 572.112772 774.051052 
L 564.034362 774.051052 
z
" clip-path="url(#p5b99f1ae89)" style="fill: #1f77b4; opacity: 0.6"/>
   </g>
   <g id="patch_46">
    <path d="M 574.132374 774.051052 
L 582.210784 774.051052 
L 582.210784 774.051052 
L 574.132374 774.051052 
z
" clip-path="url(#p5b99f1ae89)" style="fill: #1f77b4; opacity: 0.6"/>
   </g>
   <g id="patch_47">
    <path d="M 584.230386 774.051052 
L 592.308796 774.051052 
L 592.308796 683.013493 
L 584.230386 683.013493 
z
" clip-path="url(#p5b99f1ae89)" style="fill: #1f77b4; opacity: 0.6"/>
   </g>
   <g id="patch_48">
    <path d="M 594.328399 774.051052 
L 602.406809 774.051052 
L 602.406809 732.222984 
L 594.328399 732.222984 
z
" clip-path="url(#p5b99f1ae89)" style="fill: #1f77b4; opacity: 0.6"/>
   </g>
   <g id="patch_49">
    <path d="M 604.426411 774.051052 
L 612.504821 774.051052 
L 612.504821 577.213088 
L 604.426411 577.213088 
z
" clip-path="url(#p5b99f1ae89)" style="fill: #1f77b4; opacity: 0.6"/>
   </g>
   <g id="patch_50">
    <path d="M 614.524424 774.051052 
L 622.602833 774.051052 
L 622.602833 717.460137 
L 614.524424 717.460137 
z
" clip-path="url(#p5b99f1ae89)" style="fill: #1f77b4; opacity: 0.6"/>
   </g>
   <g id="patch_51">
    <path d="M 624.622436 774.051052 
L 632.700846 774.051052 
L 632.700846 749.446306 
L 624.622436 749.446306 
z
" clip-path="url(#p5b99f1ae89)" style="fill: #1f77b4; opacity: 0.6"/>
   </g>
   <g id="patch_52">
    <path d="M 634.720448 774.051052 
L 642.798858 774.051052 
L 642.798858 769.130103 
L 634.720448 769.130103 
z
" clip-path="url(#p5b99f1ae89)" style="fill: #1f77b4; opacity: 0.6"/>
   </g>
   <g id="patch_53">
    <path d="M 644.818461 774.051052 
L 652.896871 774.051052 
L 652.896871 636.264477 
L 644.818461 636.264477 
z
" clip-path="url(#p5b99f1ae89)" style="fill: #1f77b4; opacity: 0.6"/>
   </g>
   <g id="patch_54">
    <path d="M 654.916473 774.051052 
L 662.994883 774.051052 
L 662.994883 744.525357 
L 654.916473 744.525357 
z
" clip-path="url(#p5b99f1ae89)" style="fill: #1f77b4; opacity: 0.6"/>
   </g>
   <g id="patch_55">
    <path d="M 665.014486 774.051052 
L 673.092895 774.051052 
L 673.092895 774.051052 
L 665.014486 774.051052 
z
" clip-path="url(#p5b99f1ae89)" style="fill: #1f77b4; opacity: 0.6"/>
   </g>
   <g id="patch_56">
    <path d="M 675.112498 774.051052 
L 683.190908 774.051052 
L 683.190908 774.051052 
L 675.112498 774.051052 
z
" clip-path="url(#p5b99f1ae89)" style="fill: #1f77b4; opacity: 0.6"/>
   </g>
   <g id="patch_57">
    <path d="M 685.21051 774.051052 
L 693.28892 774.051052 
L 693.28892 774.051052 
L 685.21051 774.051052 
z
" clip-path="url(#p5b99f1ae89)" style="fill: #1f77b4; opacity: 0.6"/>
   </g>
   <g id="patch_58">
    <path d="M 695.308523 774.051052 
L 703.386933 774.051052 
L 703.386933 771.590577 
L 695.308523 771.590577 
z
" clip-path="url(#p5b99f1ae89)" style="fill: #1f77b4; opacity: 0.6"/>
   </g>
   <g id="patch_59">
    <path d="M 705.406535 774.051052 
L 713.484945 774.051052 
L 713.484945 774.051052 
L 705.406535 774.051052 
z
" clip-path="url(#p5b99f1ae89)" style="fill: #1f77b4; opacity: 0.6"/>
   </g>
   <g id="patch_60">
    <path d="M 715.504547 774.051052 
L 723.582957 774.051052 
L 723.582957 774.051052 
L 715.504547 774.051052 
z
" clip-path="url(#p5b99f1ae89)" style="fill: #1f77b4; opacity: 0.6"/>
   </g>
   <g id="patch_61">
    <path d="M 725.60256 774.051052 
L 733.68097 774.051052 
L 733.68097 569.831664 
L 725.60256 569.831664 
z
" clip-path="url(#p5b99f1ae89)" style="fill: #1f77b4; opacity: 0.6"/>
   </g>
   <g id="patch_62">
    <path d="M 735.700572 774.051052 
L 743.778982 774.051052 
L 743.778982 668.250646 
L 735.700572 668.250646 
z
" clip-path="url(#p5b99f1ae89)" style="fill: #1f77b4; opacity: 0.6"/>
   </g>
   <g id="patch_63">
    <path d="M 745.798585 774.051052 
L 753.876994 774.051052 
L 753.876994 680.553019 
L 745.798585 680.553019 
z
" clip-path="url(#p5b99f1ae89)" style="fill: #1f77b4; opacity: 0.6"/>
   </g>
   <g id="patch_64">
    <path d="M 755.896597 774.051052 
L 763.975007 774.051052 
L 763.975007 601.817833 
L 755.896597 601.817833 
z
" clip-path="url(#p5b99f1ae89)" style="fill: #1f77b4; opacity: 0.6"/>
   </g>
   <g id="patch_65">
    <path d="M 765.994609 774.051052 
L 774.073019 774.051052 
L 774.073019 572.292139 
L 765.994609 572.292139 
z
" clip-path="url(#p5b99f1ae89)" style="fill: #1f77b4; opacity: 0.6"/>
   </g>
   <g id="patch_66">
    <path d="M 776.092622 774.051052 
L 784.171032 774.051052 
L 784.171032 732.222984 
L 776.092622 732.222984 
z
" clip-path="url(#p5b99f1ae89)" style="fill: #1f77b4; opacity: 0.6"/>
   </g>
   <g id="patch_67">
    <path d="M 786.190634 774.051052 
L 794.269044 774.051052 
L 794.269044 658.408748 
L 786.190634 658.408748 
z
" clip-path="url(#p5b99f1ae89)" style="fill: #1f77b4; opacity: 0.6"/>
   </g>
   <g id="patch_68">
    <path d="M 796.288646 774.051052 
L 804.367056 774.051052 
L 804.367056 761.748679 
L 796.288646 761.748679 
z
" clip-path="url(#p5b99f1ae89)" style="fill: #1f77b4; opacity: 0.6"/>
   </g>
   <g id="patch_69">
    <path d="M 806.386659 774.051052 
L 814.465069 774.051052 
L 814.465069 774.051052 
L 806.386659 774.051052 
z
" clip-path="url(#p5b99f1ae89)" style="fill: #1f77b4; opacity: 0.6"/>
   </g>
   <g id="patch_70">
    <path d="M 816.484671 774.051052 
L 824.563081 774.051052 
L 824.563081 707.618239 
L 816.484671 707.618239 
z
" clip-path="url(#p5b99f1ae89)" style="fill: #1f77b4; opacity: 0.6"/>
   </g>
   <g id="patch_71">
    <path d="M 826.582684 774.051052 
L 834.661094 774.051052 
L 834.661094 737.143933 
L 826.582684 737.143933 
z
" clip-path="url(#p5b99f1ae89)" style="fill: #1f77b4; opacity: 0.6"/>
   </g>
   <g id="patch_72">
    <path d="M 836.680696 774.051052 
L 844.759106 774.051052 
L 844.759106 769.130103 
L 836.680696 769.130103 
z
" clip-path="url(#p5b99f1ae89)" style="fill: #1f77b4; opacity: 0.6"/>
   </g>
   <g id="patch_73">
    <path d="M 846.778708 774.051052 
L 854.857118 774.051052 
L 854.857118 771.590577 
L 846.778708 771.590577 
z
" clip-path="url(#p5b99f1ae89)" style="fill: #1f77b4; opacity: 0.6"/>
   </g>
   <g id="patch_74">
    <path d="M 856.876721 774.051052 
L 864.955131 774.051052 
L 864.955131 774.051052 
L 856.876721 774.051052 
z
" clip-path="url(#p5b99f1ae89)" style="fill: #1f77b4; opacity: 0.6"/>
   </g>
   <g id="patch_75">
    <path d="M 866.974733 774.051052 
L 875.053143 774.051052 
L 875.053143 774.051052 
L 866.974733 774.051052 
z
" clip-path="url(#p5b99f1ae89)" style="fill: #1f77b4; opacity: 0.6"/>
   </g>
   <g id="patch_76">
    <path d="M 877.072746 774.051052 
L 885.151155 774.051052 
L 885.151155 774.051052 
L 877.072746 774.051052 
z
" clip-path="url(#p5b99f1ae89)" style="fill: #1f77b4; opacity: 0.6"/>
   </g>
   <g id="patch_77">
    <path d="M 887.170758 774.051052 
L 895.249168 774.051052 
L 895.249168 744.525357 
L 887.170758 744.525357 
z
" clip-path="url(#p5b99f1ae89)" style="fill: #1f77b4; opacity: 0.6"/>
   </g>
   <g id="patch_78">
    <path d="M 897.26877 774.051052 
L 905.34718 774.051052 
L 905.34718 774.051052 
L 897.26877 774.051052 
z
" clip-path="url(#p5b99f1ae89)" style="fill: #1f77b4; opacity: 0.6"/>
   </g>
   <g id="patch_79">
    <path d="M 907.366783 774.051052 
L 915.445193 774.051052 
L 915.445193 774.051052 
L 907.366783 774.051052 
z
" clip-path="url(#p5b99f1ae89)" style="fill: #1f77b4; opacity: 0.6"/>
   </g>
   <g id="patch_80">
    <path d="M 917.464795 774.051052 
L 925.543205 774.051052 
L 925.543205 774.051052 
L 917.464795 774.051052 
z
" clip-path="url(#p5b99f1ae89)" style="fill: #1f77b4; opacity: 0.6"/>
   </g>
   <g id="patch_81">
    <path d="M 927.562807 774.051052 
L 935.641217 774.051052 
L 935.641217 774.051052 
L 927.562807 774.051052 
z
" clip-path="url(#p5b99f1ae89)" style="fill: #1f77b4; opacity: 0.6"/>
   </g>
   <g id="patch_82">
    <path d="M 937.66082 774.051052 
L 945.73923 774.051052 
L 945.73923 774.051052 
L 937.66082 774.051052 
z
" clip-path="url(#p5b99f1ae89)" style="fill: #1f77b4; opacity: 0.6"/>
   </g>
   <g id="patch_83">
    <path d="M 947.758832 774.051052 
L 955.837242 774.051052 
L 955.837242 589.51546 
L 947.758832 589.51546 
z
" clip-path="url(#p5b99f1ae89)" style="fill: #1f77b4; opacity: 0.6"/>
   </g>
   <g id="patch_84">
    <path d="M 957.856845 774.051052 
L 965.935254 774.051052 
L 965.935254 205.68143 
L 957.856845 205.68143 
z
" clip-path="url(#p5b99f1ae89)" style="fill: #1f77b4; opacity: 0.6"/>
   </g>
   <g id="patch_85">
    <path d="M 967.954857 774.051052 
L 976.033267 774.051052 
L 976.033267 678.092544 
L 967.954857 678.092544 
z
" clip-path="url(#p5b99f1ae89)" style="fill: #1f77b4; opacity: 0.6"/>
   </g>
   <g id="patch_86">
    <path d="M 978.052869 774.051052 
L 986.131279 774.051052 
L 986.131279 774.051052 
L 978.052869 774.051052 
z
" clip-path="url(#p5b99f1ae89)" style="fill: #1f77b4; opacity: 0.6"/>
   </g>
   <g id="patch_87">
    <path d="M 988.150882 774.051052 
L 996.229292 774.051052 
L 996.229292 739.604408 
L 988.150882 739.604408 
z
" clip-path="url(#p5b99f1ae89)" style="fill: #1f77b4; opacity: 0.6"/>
   </g>
   <g id="patch_88">
    <path d="M 998.248894 774.051052 
L 1006.327304 774.051052 
L 1006.327304 761.748679 
L 998.248894 761.748679 
z
" clip-path="url(#p5b99f1ae89)" style="fill: #1f77b4; opacity: 0.6"/>
   </g>
   <g id="patch_89">
    <path d="M 1008.346906 774.051052 
L 1016.425316 774.051052 
L 1016.425316 774.051052 
L 1008.346906 774.051052 
z
" clip-path="url(#p5b99f1ae89)" style="fill: #1f77b4; opacity: 0.6"/>
   </g>
   <g id="patch_90">
    <path d="M 1018.444919 774.051052 
L 1026.523329 774.051052 
L 1026.523329 774.051052 
L 1018.444919 774.051052 
z
" clip-path="url(#p5b99f1ae89)" style="fill: #1f77b4; opacity: 0.6"/>
   </g>
   <g id="patch_91">
    <path d="M 1028.542931 774.051052 
L 1036.621341 774.051052 
L 1036.621341 774.051052 
L 1028.542931 774.051052 
z
" clip-path="url(#p5b99f1ae89)" style="fill: #1f77b4; opacity: 0.6"/>
   </g>
   <g id="patch_92">
    <path d="M 1038.640944 774.051052 
L 1046.719354 774.051052 
L 1046.719354 764.209154 
L 1038.640944 764.209154 
z
" clip-path="url(#p5b99f1ae89)" style="fill: #1f77b4; opacity: 0.6"/>
   </g>
   <g id="patch_93">
    <path d="M 1048.738956 774.051052 
L 1056.817366 774.051052 
L 1056.817366 774.051052 
L 1048.738956 774.051052 
z
" clip-path="url(#p5b99f1ae89)" style="fill: #1f77b4; opacity: 0.6"/>
   </g>
   <g id="patch_94">
    <path d="M 1058.836968 774.051052 
L 1066.915378 774.051052 
L 1066.915378 742.064883 
L 1058.836968 742.064883 
z
" clip-path="url(#p5b99f1ae89)" style="fill: #1f77b4; opacity: 0.6"/>
   </g>
   <g id="patch_95">
    <path d="M 1068.934981 774.051052 
L 1077.013391 774.051052 
L 1077.013391 774.051052 
L 1068.934981 774.051052 
z
" clip-path="url(#p5b99f1ae89)" style="fill: #1f77b4; opacity: 0.6"/>
   </g>
   <g id="patch_96">
    <path d="M 1079.032993 774.051052 
L 1087.111403 774.051052 
L 1087.111403 683.013493 
L 1079.032993 683.013493 
z
" clip-path="url(#p5b99f1ae89)" style="fill: #1f77b4; opacity: 0.6"/>
   </g>
   <g id="patch_97">
    <path d="M 1089.131006 774.051052 
L 1097.209415 774.051052 
L 1097.209415 751.906781 
L 1089.131006 751.906781 
z
" clip-path="url(#p5b99f1ae89)" style="fill: #1f77b4; opacity: 0.6"/>
   </g>
   <g id="patch_98">
    <path d="M 1099.229018 774.051052 
L 1107.307428 774.051052 
L 1107.307428 774.051052 
L 1099.229018 774.051052 
z
" clip-path="url(#p5b99f1ae89)" style="fill: #1f77b4; opacity: 0.6"/>
   </g>
   <g id="patch_99">
    <path d="M 1109.32703 774.051052 
L 1117.40544 774.051052 
L 1117.40544 754.367255 
L 1109.32703 754.367255 
z
" clip-path="url(#p5b99f1ae89)" style="fill: #1f77b4; opacity: 0.6"/>
   </g>
   <g id="patch_100">
    <path d="M 1119.425043 774.051052 
L 1127.503453 774.051052 
L 1127.503453 641.185426 
L 1119.425043 641.185426 
z
" clip-path="url(#p5b99f1ae89)" style="fill: #1f77b4; opacity: 0.6"/>
   </g>
   <g id="patch_101">
    <path d="M 1129.523055 774.051052 
L 1137.601465 774.051052 
L 1137.601465 599.357359 
L 1129.523055 599.357359 
z
" clip-path="url(#p5b99f1ae89)" style="fill: #1f77b4; opacity: 0.6"/>
   </g>
   <g id="patch_102">
    <path d="M 1139.621067 774.051052 
L 1147.699477 774.051052 
L 1147.699477 621.50163 
L 1139.621067 621.50163 
z
" clip-path="url(#p5b99f1ae89)" style="fill: #1f77b4; opacity: 0.6"/>
   </g>
   <g id="patch_103">
    <path d="M 1149.71908 774.051052 
L 1157.79749 774.051052 
L 1157.79749 104.801974 
L 1149.71908 104.801974 
z
" clip-path="url(#p5b99f1ae89)" style="fill: #1f77b4; opacity: 0.6"/>
   </g>
   <g id="patch_104">
    <path d="M 1159.817092 774.051052 
L 1167.895502 774.051052 
L 1167.895502 697.776341 
L 1159.817092 697.776341 
z
" clip-path="url(#p5b99f1ae89)" style="fill: #1f77b4; opacity: 0.6"/>
   </g>
   <g id="patch_105">
    <path d="M 1169.915105 774.051052 
L 1177.993514 774.051052 
L 1177.993514 331.165633 
L 1169.915105 331.165633 
z
" clip-path="url(#p5b99f1ae89)" style="fill: #1f77b4; opacity: 0.6"/>
   </g>
   <g id="patch_106">
    <path d="M 1180.013117 774.051052 
L 1188.091527 774.051052 
L 1188.091527 486.175529 
L 1180.013117 486.175529 
z
" clip-path="url(#p5b99f1ae89)" style="fill: #1f77b4; opacity: 0.6"/>
   </g>
   <g id="patch_107">
    <path d="M 1190.111129 774.051052 
L 1198.189539 774.051052 
L 1198.189539 594.43641 
L 1190.111129 594.43641 
z
" clip-path="url(#p5b99f1ae89)" style="fill: #1f77b4; opacity: 0.6"/>
   </g>
   <g id="patch_108">
    <path d="M 1200.209142 774.051052 
L 1208.287552 774.051052 
L 1208.287552 633.804002 
L 1200.209142 633.804002 
z
" clip-path="url(#p5b99f1ae89)" style="fill: #1f77b4; opacity: 0.6"/>
   </g>
   <g id="patch_109">
    <path d="M 1210.307154 774.051052 
L 1218.385564 774.051052 
L 1218.385564 540.305969 
L 1210.307154 540.305969 
z
" clip-path="url(#p5b99f1ae89)" style="fill: #1f77b4; opacity: 0.6"/>
   </g>
   <g id="patch_110">
    <path d="M 1220.405167 774.051052 
L 1228.483576 774.051052 
L 1228.483576 771.590577 
L 1220.405167 771.590577 
z
" clip-path="url(#p5b99f1ae89)" style="fill: #1f77b4; opacity: 0.6"/>
   </g>
   <g id="patch_111">
    <path d="M 1230.503179 774.051052 
L 1238.581589 774.051052 
L 1238.581589 774.051052 
L 1230.503179 774.051052 
z
" clip-path="url(#p5b99f1ae89)" style="fill: #1f77b4; opacity: 0.6"/>
   </g>
   <g id="patch_112">
    <path d="M 1240.601191 774.051052 
L 1248.679601 774.051052 
L 1248.679601 572.292139 
L 1240.601191 572.292139 
z
" clip-path="url(#p5b99f1ae89)" style="fill: #1f77b4; opacity: 0.6"/>
   </g>
   <g id="patch_113">
    <path d="M 1250.699204 774.051052 
L 1258.777614 774.051052 
L 1258.777614 673.171595 
L 1250.699204 673.171595 
z
" clip-path="url(#p5b99f1ae89)" style="fill: #1f77b4; opacity: 0.6"/>
   </g>
   <g id="patch_114">
    <path d="M 1260.797216 774.051052 
L 1268.875626 774.051052 
L 1268.875626 774.051052 
L 1260.797216 774.051052 
z
" clip-path="url(#p5b99f1ae89)" style="fill: #1f77b4; opacity: 0.6"/>
   </g>
   <g id="patch_115">
    <path d="M 1270.895228 774.051052 
L 1278.973638 774.051052 
L 1278.973638 774.051052 
L 1270.895228 774.051052 
z
" clip-path="url(#p5b99f1ae89)" style="fill: #1f77b4; opacity: 0.6"/>
   </g>
   <g id="patch_116">
    <path d="M 1280.993241 774.051052 
L 1289.071651 774.051052 
L 1289.071651 774.051052 
L 1280.993241 774.051052 
z
" clip-path="url(#p5b99f1ae89)" style="fill: #1f77b4; opacity: 0.6"/>
   </g>
   <g id="patch_117">
    <path d="M 1291.091253 774.051052 
L 1299.169663 774.051052 
L 1299.169663 774.051052 
L 1291.091253 774.051052 
z
" clip-path="url(#p5b99f1ae89)" style="fill: #1f77b4; opacity: 0.6"/>
   </g>
   <g id="patch_118">
    <path d="M 1301.189266 774.051052 
L 1309.267675 774.051052 
L 1309.267675 774.051052 
L 1301.189266 774.051052 
z
" clip-path="url(#p5b99f1ae89)" style="fill: #1f77b4; opacity: 0.6"/>
   </g>
   <g id="patch_119">
    <path d="M 1311.287278 774.051052 
L 1319.365688 774.051052 
L 1319.365688 774.051052 
L 1311.287278 774.051052 
z
" clip-path="url(#p5b99f1ae89)" style="fill: #1f77b4; opacity: 0.6"/>
   </g>
   <g id="patch_120">
    <path d="M 1321.38529 774.051052 
L 1329.4637 774.051052 
L 1329.4637 774.051052 
L 1321.38529 774.051052 
z
" clip-path="url(#p5b99f1ae89)" style="fill: #1f77b4; opacity: 0.6"/>
   </g>
   <g id="patch_121">
    <path d="M 1331.483303 774.051052 
L 1339.561713 774.051052 
L 1339.561713 724.841561 
L 1331.483303 724.841561 
z
" clip-path="url(#p5b99f1ae89)" style="fill: #1f77b4; opacity: 0.6"/>
   </g>
   <g id="patch_122">
    <path d="M 1341.581315 774.051052 
L 1349.659725 774.051052 
L 1349.659725 766.669628 
L 1341.581315 766.669628 
z
" clip-path="url(#p5b99f1ae89)" style="fill: #1f77b4; opacity: 0.6"/>
   </g>
   <g id="patch_123">
    <path d="M 1351.679327 774.051052 
L 1359.757737 774.051052 
L 1359.757737 774.051052 
L 1351.679327 774.051052 
z
" clip-path="url(#p5b99f1ae89)" style="fill: #1f77b4; opacity: 0.6"/>
   </g>
   <g id="patch_124">
    <path d="M 1361.77734 774.051052 
L 1369.85575 774.051052 
L 1369.85575 707.618239 
L 1361.77734 707.618239 
z
" clip-path="url(#p5b99f1ae89)" style="fill: #1f77b4; opacity: 0.6"/>
   </g>
   <g id="patch_125">
    <path d="M 1371.875352 774.051052 
L 1379.953762 774.051052 
L 1379.953762 643.645901 
L 1371.875352 643.645901 
z
" clip-path="url(#p5b99f1ae89)" style="fill: #1f77b4; opacity: 0.6"/>
   </g>
   <g id="patch_126">
    <path d="M 1381.973365 774.051052 
L 1390.051775 774.051052 
L 1390.051775 446.807936 
L 1381.973365 446.807936 
z
" clip-path="url(#p5b99f1ae89)" style="fill: #1f77b4; opacity: 0.6"/>
   </g>
   <g id="patch_127">
    <path d="M 1392.071377 774.051052 
L 1400.149787 774.051052 
L 1400.149787 774.051052 
L 1392.071377 774.051052 
z
" clip-path="url(#p5b99f1ae89)" style="fill: #1f77b4; opacity: 0.6"/>
   </g>
   <g id="patch_128">
    <path d="M 1402.169389 774.051052 
L 1410.247799 774.051052 
L 1410.247799 702.69729 
L 1402.169389 702.69729 
z
" clip-path="url(#p5b99f1ae89)" style="fill: #1f77b4; opacity: 0.6"/>
   </g>
   <g id="patch_129">
    <path d="M 1412.267402 774.051052 
L 1420.345812 774.051052 
L 1420.345812 589.51546 
L 1412.267402 589.51546 
z
" clip-path="url(#p5b99f1ae89)" style="fill: #1f77b4; opacity: 0.6"/>
   </g>
   <g id="patch_130">
    <path d="M 1422.365414 774.051052 
L 1430.443824 774.051052 
L 1430.443824 296.718989 
L 1422.365414 296.718989 
z
" clip-path="url(#p5b99f1ae89)" style="fill: #1f77b4; opacity: 0.6"/>
   </g>
   <g id="patch_131">
    <path d="M 1432.463427 774.051052 
L 1440.541836 774.051052 
L 1440.541836 577.213088 
L 1432.463427 577.213088 
z
" clip-path="url(#p5b99f1ae89)" style="fill: #1f77b4; opacity: 0.6"/>
   </g>
   <g id="patch_132">
    <path d="M 1442.561439 774.051052 
L 1450.639849 774.051052 
L 1450.639849 596.896884 
L 1442.561439 596.896884 
z
" clip-path="url(#p5b99f1ae89)" style="fill: #1f77b4; opacity: 0.6"/>
   </g>
   <g id="patch_133">
    <path d="M 1452.659451 774.051052 
L 1460.737861 774.051052 
L 1460.737861 774.051052 
L 1452.659451 774.051052 
z
" clip-path="url(#p5b99f1ae89)" style="fill: #1f77b4; opacity: 0.6"/>
   </g>
   <g id="patch_134">
    <path d="M 1462.757464 774.051052 
L 1470.835874 774.051052 
L 1470.835874 680.553019 
L 1462.757464 680.553019 
z
" clip-path="url(#p5b99f1ae89)" style="fill: #1f77b4; opacity: 0.6"/>
   </g>
   <g id="patch_135">
    <path d="M 1472.855476 774.051052 
L 1480.933886 774.051052 
L 1480.933886 604.278308 
L 1472.855476 604.278308 
z
" clip-path="url(#p5b99f1ae89)" style="fill: #1f77b4; opacity: 0.6"/>
   </g>
   <g id="patch_136">
    <path d="M 1482.953488 774.051052 
L 1491.031898 774.051052 
L 1491.031898 705.157764 
L 1482.953488 705.157764 
z
" clip-path="url(#p5b99f1ae89)" style="fill: #1f77b4; opacity: 0.6"/>
   </g>
   <g id="patch_137">
    <path d="M 1493.051501 774.051052 
L 1501.129911 774.051052 
L 1501.129911 774.051052 
L 1493.051501 774.051052 
z
" clip-path="url(#p5b99f1ae89)" style="fill: #1f77b4; opacity: 0.6"/>
   </g>
   <g id="patch_138">
    <path d="M 1503.149513 774.051052 
L 1511.227923 774.051052 
L 1511.227923 756.82773 
L 1503.149513 756.82773 
z
" clip-path="url(#p5b99f1ae89)" style="fill: #1f77b4; opacity: 0.6"/>
   </g>
   <g id="patch_139">
    <path d="M 1513.247526 774.051052 
L 1521.325935 774.051052 
L 1521.325935 729.76251 
L 1513.247526 729.76251 
z
" clip-path="url(#p5b99f1ae89)" style="fill: #1f77b4; opacity: 0.6"/>
   </g>
   <g id="patch_140">
    <path d="M 1523.345538 774.051052 
L 1531.423948 774.051052 
L 1531.423948 717.460137 
L 1523.345538 717.460137 
z
" clip-path="url(#p5b99f1ae89)" style="fill: #1f77b4; opacity: 0.6"/>
   </g>
   <g id="patch_141">
    <path d="M 1533.44355 774.051052 
L 1541.52196 774.051052 
L 1541.52196 771.590577 
L 1533.44355 771.590577 
z
" clip-path="url(#p5b99f1ae89)" style="fill: #1f77b4; opacity: 0.6"/>
   </g>
   <g id="patch_142">
    <path d="M 1543.541563 774.051052 
L 1551.619973 774.051052 
L 1551.619973 732.222984 
L 1543.541563 732.222984 
z
" clip-path="url(#p5b99f1ae89)" style="fill: #1f77b4; opacity: 0.6"/>
   </g>
   <g id="patch_143">
    <path d="M 1553.639575 774.051052 
L 1561.717985 774.051052 
L 1561.717985 774.051052 
L 1553.639575 774.051052 
z
" clip-path="url(#p5b99f1ae89)" style="fill: #1f77b4; opacity: 0.6"/>
   </g>
   <g id="patch_144">
    <path d="M 1563.737587 774.051052 
L 1571.815997 774.051052 
L 1571.815997 774.051052 
L 1563.737587 774.051052 
z
" clip-path="url(#p5b99f1ae89)" style="fill: #1f77b4; opacity: 0.6"/>
   </g>
   <g id="patch_145">
    <path d="M 1573.8356 774.051052 
L 1581.91401 774.051052 
L 1581.91401 774.051052 
L 1573.8356 774.051052 
z
" clip-path="url(#p5b99f1ae89)" style="fill: #1f77b4; opacity: 0.6"/>
   </g>
   <g id="patch_146">
    <path d="M 1583.933612 774.051052 
L 1592.012022 774.051052 
L 1592.012022 774.051052 
L 1583.933612 774.051052 
z
" clip-path="url(#p5b99f1ae89)" style="fill: #1f77b4; opacity: 0.6"/>
   </g>
   <g id="patch_147">
    <path d="M 1594.031625 774.051052 
L 1602.110035 774.051052 
L 1602.110035 648.56685 
L 1594.031625 648.56685 
z
" clip-path="url(#p5b99f1ae89)" style="fill: #1f77b4; opacity: 0.6"/>
   </g>
   <g id="patch_148">
    <path d="M 1604.129637 774.051052 
L 1612.208047 774.051052 
L 1612.208047 508.3198 
L 1604.129637 508.3198 
z
" clip-path="url(#p5b99f1ae89)" style="fill: #1f77b4; opacity: 0.6"/>
   </g>
   <g id="patch_149">
    <path d="M 1614.227649 774.051052 
L 1622.306059 774.051052 
L 1622.306059 774.051052 
L 1614.227649 774.051052 
z
" clip-path="url(#p5b99f1ae89)" style="fill: #1f77b4; opacity: 0.6"/>
   </g>
   <g id="patch_150">
    <path d="M 1624.325662 774.051052 
L 1632.404072 774.051052 
L 1632.404072 737.143933 
L 1624.325662 737.143933 
z
" clip-path="url(#p5b99f1ae89)" style="fill: #1f77b4; opacity: 0.6"/>
   </g>
   <g id="patch_151">
    <path d="M 1634.423674 774.051052 
L 1642.502084 774.051052 
L 1642.502084 774.051052 
L 1634.423674 774.051052 
z
" clip-path="url(#p5b99f1ae89)" style="fill: #1f77b4; opacity: 0.6"/>
   </g>
   <g id="patch_152">
    <path d="M 1644.521687 774.051052 
L 1652.600096 774.051052 
L 1652.600096 774.051052 
L 1644.521687 774.051052 
z
" clip-path="url(#p5b99f1ae89)" style="fill: #1f77b4; opacity: 0.6"/>
   </g>
   <g id="patch_153">
    <path d="M 1654.619699 774.051052 
L 1662.698109 774.051052 
L 1662.698109 774.051052 
L 1654.619699 774.051052 
z
" clip-path="url(#p5b99f1ae89)" style="fill: #1f77b4; opacity: 0.6"/>
   </g>
   <g id="patch_154">
    <path d="M 1664.717711 774.051052 
L 1672.796121 774.051052 
L 1672.796121 774.051052 
L 1664.717711 774.051052 
z
" clip-path="url(#p5b99f1ae89)" style="fill: #1f77b4; opacity: 0.6"/>
   </g>
   <g id="matplotlib.axis_2">
    <g id="xtick_1">
     <g id="line2d_1">
      <defs>
       <path id="m19c5fb972c" d="M 0 0 
L 0 3.5 
" style="stroke: #000000; stroke-width: 0.8"/>
      </defs>
      <g>
       <use xlink:href="#m19c5fb972c" x="315.623257" y="774.051052" style="stroke: #000000; stroke-width: 0.8"/>
      </g>
     </g>
     <g id="text_1">
      <!-- 2025-08 -->
      <g transform="translate(284.607786 815.968868) rotate(-45) scale(0.1 -0.1)">
       <defs>
        <path id="DejaVuSans-32" d="M 1228 531 
L 3431 531 
L 3431 0 
L 469 0 
L 469 531 
Q 828 903 1448 1529 
Q 2069 2156 2228 2338 
Q 2531 2678 2651 2914 
Q 2772 3150 2772 3378 
Q 2772 3750 2511 3984 
Q 2250 4219 1831 4219 
Q 1534 4219 1204 4116 
Q 875 4013 500 3803 
L 500 4441 
Q 881 4594 1212 4672 
Q 1544 4750 1819 4750 
Q 2544 4750 2975 4387 
Q 3406 4025 3406 3419 
Q 3406 3131 3298 2873 
Q 3191 2616 2906 2266 
Q 2828 2175 2409 1742 
Q 1991 1309 1228 531 
z
" transform="scale(0.015625)"/>
        <path id="DejaVuSans-30" d="M 2034 4250 
Q 1547 4250 1301 3770 
Q 1056 3291 1056 2328 
Q 1056 1369 1301 889 
Q 1547 409 2034 409 
Q 2525 409 2770 889 
Q 3016 1369 3016 2328 
Q 3016 3291 2770 3770 
Q 2525 4250 2034 4250 
z
M 2034 4750 
Q 2819 4750 3233 4129 
Q 3647 3509 3647 2328 
Q 3647 1150 3233 529 
Q 2819 -91 2034 -91 
Q 1250 -91 836 529 
Q 422 1150 422 2328 
Q 422 3509 836 4129 
Q 1250 4750 2034 4750 
z
" transform="scale(0.015625)"/>
        <path id="DejaVuSans-35" d="M 691 4666 
L 3169 4666 
L 3169 4134 
L 1269 4134 
L 1269 2991 
Q 1406 3038 1543 3061 
Q 1681 3084 1819 3084 
Q 2600 3084 3056 2656 
Q 3513 2228 3513 1497 
Q 3513 744 3044 326 
Q 2575 -91 1722 -91 
Q 1428 -91 1123 -41 
Q 819 9 494 109 
L 494 744 
Q 775 591 1075 516 
Q 1375 441 1709 441 
Q 2250 441 2565 725 
Q 2881 1009 2881 1497 
Q 2881 1984 2565 2268 
Q 2250 2553 1709 2553 
Q 1456 2553 1204 2497 
Q 953 2441 691 2322 
L 691 4666 
z
" transform="scale(0.015625)"/>
        <path id="DejaVuSans-2d" d="M 313 2009 
L 1997 2009 
L 1997 1497 
L 313 1497 
L 313 2009 
z
" transform="scale(0.015625)"/>
        <path id="DejaVuSans-38" d="M 2034 2216 
Q 1584 2216 1326 1975 
Q 1069 1734 1069 1313 
Q 1069 891 1326 650 
Q 1584 409 2034 409 
Q 2484 409 2743 651 
Q 3003 894 3003 1313 
Q 3003 1734 2745 1975 
Q 2488 2216 2034 2216 
z
M 1403 2484 
Q 997 2584 770 2862 
Q 544 3141 544 3541 
Q 544 4100 942 4425 
Q 1341 4750 2034 4750 
Q 2731 4750 3128 4425 
Q 3525 4100 3525 3541 
Q 3525 3141 3298 2862 
Q 3072 2584 2669 2484 
Q 3125 2378 3379 2068 
Q 3634 1759 3634 1313 
Q 3634 634 3220 271 
Q 2806 -91 2034 -91 
Q 1263 -91 848 271 
Q 434 634 434 1313 
Q 434 1759 690 2068 
Q 947 2378 1403 2484 
z
M 1172 3481 
Q 1172 3119 1398 2916 
Q 1625 2713 2034 2713 
Q 2441 2713 2670 2916 
Q 2900 3119 2900 3481 
Q 2900 3844 2670 4047 
Q 2441 4250 2034 4250 
Q 1625 4250 1398 4047 
Q 1172 3844 1172 3481 
z
" transform="scale(0.015625)"/>
       </defs>
       <use xlink:href="#DejaVuSans-32"/>
       <use xlink:href="#DejaVuSans-30" transform="translate(63.623047 0)"/>
       <use xlink:href="#DejaVuSans-32" transform="translate(127.246094 0)"/>
       <use xlink:href="#DejaVuSans-35" transform="translate(190.869141 0)"/>
       <use xlink:href="#DejaVuSans-2d" transform="translate(254.492188 0)"/>
       <use xlink:href="#DejaVuSans-30" transform="translate(290.576172 0)"/>
       <use xlink:href="#DejaVuSans-38" transform="translate(354.199219 0)"/>
      </g>
     </g>
    </g>
    <g id="xtick_2">
     <g id="line2d_2">
      <g>
       <use xlink:href="#m19c5fb972c" x="628.661641" y="774.051052" style="stroke: #000000; stroke-width: 0.8"/>
      </g>
     </g>
     <g id="text_2">
      <!-- 2025-09 -->
      <g transform="translate(597.64617 815.968868) rotate(-45) scale(0.1 -0.1)">
       <defs>
        <path id="DejaVuSans-39" d="M 703 97 
L 703 672 
Q 941 559 1184 500 
Q 1428 441 1663 441 
Q 2288 441 2617 861 
Q 2947 1281 2994 2138 
Q 2813 1869 2534 1725 
Q 2256 1581 1919 1581 
Q 1219 1581 811 2004 
Q 403 2428 403 3163 
Q 403 3881 828 4315 
Q 1253 4750 1959 4750 
Q 2769 4750 3195 4129 
Q 3622 3509 3622 2328 
Q 3622 1225 3098 567 
Q 2575 -91 1691 -91 
Q 1453 -91 1209 -44 
Q 966 3 703 97 
z
M 1959 2075 
Q 2384 2075 2632 2365 
Q 2881 2656 2881 3163 
Q 2881 3666 2632 3958 
Q 2384 4250 1959 4250 
Q 1534 4250 1286 3958 
Q 1038 3666 1038 3163 
Q 1038 2656 1286 2365 
Q 1534 2075 1959 2075 
z
" transform="scale(0.015625)"/>
       </defs>
       <use xlink:href="#DejaVuSans-32"/>
       <use xlink:href="#DejaVuSans-30" transform="translate(63.623047 0)"/>
       <use xlink:href="#DejaVuSans-32" transform="translate(127.246094 0)"/>
       <use xlink:href="#DejaVuSans-35" transform="translate(190.869141 0)"/>
       <use xlink:href="#DejaVuSans-2d" transform="translate(254.492188 0)"/>
       <use xlink:href="#DejaVuSans-30" transform="translate(290.576172 0)"/>
       <use xlink:href="#DejaVuSans-39" transform="translate(354.199219 0)"/>
      </g>
     </g>
    </g>
    <g id="xtick_3">
     <g id="line2d_3">
      <g>
       <use xlink:href="#m19c5fb972c" x="931.602012" y="774.051052" style="stroke: #000000; stroke-width: 0.8"/>
      </g>
     </g>
     <g id="text_3">
      <!-- 2025-10 -->
      <g transform="translate(900.586541 815.968868) rotate(-45) scale(0.1 -0.1)">
       <defs>
        <path id="DejaVuSans-31" d="M 794 531 
L 1825 531 
L 1825 4091 
L 703 3866 
L 703 4441 
L 1819 4666 
L 2450 4666 
L 2450 531 
L 3481 531 
L 3481 0 
L 794 0 
L 794 531 
z
" transform="scale(0.015625)"/>
       </defs>
       <use xlink:href="#DejaVuSans-32"/>
       <use xlink:href="#DejaVuSans-30" transform="translate(63.623047 0)"/>
       <use xlink:href="#DejaVuSans-32" transform="translate(127.246094 0)"/>
       <use xlink:href="#DejaVuSans-35" transform="translate(190.869141 0)"/>
       <use xlink:href="#DejaVuSans-2d" transform="translate(254.492188 0)"/>
       <use xlink:href="#DejaVuSans-31" transform="translate(290.576172 0)"/>
       <use xlink:href="#DejaVuSans-30" transform="translate(354.199219 0)"/>
      </g>
     </g>
    </g>
    <g id="xtick_4">
     <g id="line2d_4">
      <g>
       <use xlink:href="#m19c5fb972c" x="1244.640396" y="774.051052" style="stroke: #000000; stroke-width: 0.8"/>
      </g>
     </g>
     <g id="text_4">
      <!-- 2025-11 -->
      <g transform="translate(1213.624925 815.968868) rotate(-45) scale(0.1 -0.1)">
       <use xlink:href="#DejaVuSans-32"/>
       <use xlink:href="#DejaVuSans-30" transform="translate(63.623047 0)"/>
       <use xlink:href="#DejaVuSans-32" transform="translate(127.246094 0)"/>
       <use xlink:href="#DejaVuSans-35" transform="translate(190.869141 0)"/>
       <use xlink:href="#DejaVuSans-2d" transform="translate(254.492188 0)"/>
       <use xlink:href="#DejaVuSans-31" transform="translate(290.576172 0)"/>
       <use xlink:href="#DejaVuSans-31" transform="translate(354.199219 0)"/>
      </g>
     </g>
    </g>
    <g id="xtick_5">
     <g id="line2d_5">
      <g>
       <use xlink:href="#m19c5fb972c" x="1547.580768" y="774.051052" style="stroke: #000000; stroke-width: 0.8"/>
      </g>
     </g>
     <g id="text_5">
      <!-- 2025-12 -->
      <g transform="translate(1516.565296 815.968868) rotate(-45) scale(0.1 -0.1)">
       <use xlink:href="#DejaVuSans-32"/>
       <use xlink:href="#DejaVuSans-30" transform="translate(63.623047 0)"/>
       <use xlink:href="#DejaVuSans-32" transform="translate(127.246094 0)"/>
       <use xlink:href="#DejaVuSans-35" transform="translate(190.869141 0)"/>
       <use xlink:href="#DejaVuSans-2d" transform="translate(254.492188 0)"/>
       <use xlink:href="#DejaVuSans-31" transform="translate(290.576172 0)"/>
       <use xlink:href="#DejaVuSans-32" transform="translate(354.199219 0)"/>
      </g>
     </g>
    </g>
    <g id="text_6">
     <!-- Datum -->
     <g transform="translate(904.590719 829.037867) scale(0.1 -0.1)">
      <defs>
       <path id="DejaVuSans-44" d="M 1259 4147 
L 1259 519 
L 2022 519 
Q 2988 519 3436 956 
Q 3884 1394 3884 2338 
Q 3884 3275 3436 3711 
Q 2988 4147 2022 4147 
L 1259 4147 
z
M 628 4666 
L 1925 4666 
Q 3281 4666 3915 4102 
Q 4550 3538 4550 2338 
Q 4550 1131 3912 565 
Q 3275 0 1925 0 
L 628 0 
L 628 4666 
z
" transform="scale(0.015625)"/>
       <path id="DejaVuSans-61" d="M 2194 1759 
Q 1497 1759 1228 1600 
Q 959 1441 959 1056 
Q 959 750 1161 570 
Q 1363 391 1709 391 
Q 2188 391 2477 730 
Q 2766 1069 2766 1631 
L 2766 1759 
L 2194 1759 
z
M 3341 1997 
L 3341 0 
L 2766 0 
L 2766 531 
Q 2569 213 2275 61 
Q 1981 -91 1556 -91 
Q 1019 -91 701 211 
Q 384 513 384 1019 
Q 384 1609 779 1909 
Q 1175 2209 1959 2209 
L 2766 2209 
L 2766 2266 
Q 2766 2663 2505 2880 
Q 2244 3097 1772 3097 
Q 1472 3097 1187 3025 
Q 903 2953 641 2809 
L 641 3341 
Q 956 3463 1253 3523 
Q 1550 3584 1831 3584 
Q 2591 3584 2966 3190 
Q 3341 2797 3341 1997 
z
" transform="scale(0.015625)"/>
       <path id="DejaVuSans-74" d="M 1172 4494 
L 1172 3500 
L 2356 3500 
L 2356 3053 
L 1172 3053 
L 1172 1153 
Q 1172 725 1289 603 
Q 1406 481 1766 481 
L 2356 481 
L 2356 0 
L 1766 0 
Q 1100 0 847 248 
Q 594 497 594 1153 
L 594 3053 
L 172 3053 
L 172 3500 
L 594 3500 
L 594 4494 
L 1172 4494 
z
" transform="scale(0.015625)"/>
       <path id="DejaVuSans-75" d="M 544 1381 
L 544 3500 
L 1119 3500 
L 1119 1403 
Q 1119 906 1312 657 
Q 1506 409 1894 409 
Q 2359 409 2629 706 
Q 2900 1003 2900 1516 
L 2900 3500 
L 3475 3500 
L 3475 0 
L 2900 0 
L 2900 538 
Q 2691 219 2414 64 
Q 2138 -91 1772 -91 
Q 1169 -91 856 284 
Q 544 659 544 1381 
z
M 1991 3584 
L 1991 3584 
z
" transform="scale(0.015625)"/>
       <path id="DejaVuSans-6d" d="M 3328 2828 
Q 3544 3216 3844 3400 
Q 4144 3584 4550 3584 
Q 5097 3584 5394 3201 
Q 5691 2819 5691 2113 
L 5691 0 
L 5113 0 
L 5113 2094 
Q 5113 2597 4934 2840 
Q 4756 3084 4391 3084 
Q 3944 3084 3684 2787 
Q 3425 2491 3425 1978 
L 3425 0 
L 2847 0 
L 2847 2094 
Q 2847 2600 2669 2842 
Q 2491 3084 2119 3084 
Q 1678 3084 1418 2786 
Q 1159 2488 1159 1978 
L 1159 0 
L 581 0 
L 581 3500 
L 1159 3500 
L 1159 2956 
Q 1356 3278 1631 3431 
Q 1906 3584 2284 3584 
Q 2666 3584 2933 3390 
Q 3200 3197 3328 2828 
z
" transform="scale(0.015625)"/>
      </defs>
      <use xlink:href="#DejaVuSans-44"/>
      <use xlink:href="#DejaVuSans-61" transform="translate(77.001953 0)"/>
      <use xlink:href="#DejaVuSans-74" transform="translate(138.28125 0)"/>
      <use xlink:href="#DejaVuSans-75" transform="translate(177.490234 0)"/>
      <use xlink:href="#DejaVuSans-6d" transform="translate(240.869141 0)"/>
     </g>
    </g>
   </g>
   <g id="matplotlib.axis_3">
    <g id="ytick_1">
     <g id="line2d_6">
      <path d="M 95.082667 774.051052 
L 1747.925333 774.051052 
" clip-path="url(#p5b99f1ae89)" style="fill: none; stroke: #b0b0b0; stroke-opacity: 0.25; stroke-width: 0.8; stroke-linecap: square"/>
     </g>
     <g id="line2d_7">
      <defs>
       <path id="m1eeac15840" d="M 0 0 
L -3.5 0 
" style="stroke: #000000; stroke-width: 0.8"/>
      </defs>
      <g>
       <use xlink:href="#m1eeac15840" x="95.082667" y="774.051052" style="stroke: #000000; stroke-width: 0.8"/>
      </g>
     </g>
     <g id="text_7">
      <!-- 0 -->
      <g transform="translate(81.720167 777.85027) scale(0.1 -0.1)">
       <use xlink:href="#DejaVuSans-30"/>
      </g>
     </g>
    </g>
    <g id="ytick_2">
     <g id="line2d_8">
      <path d="M 95.082667 651.027324 
L 1747.925333 651.027324 
" clip-path="url(#p5b99f1ae89)" style="fill: none; stroke: #b0b0b0; stroke-opacity: 0.25; stroke-width: 0.8; stroke-linecap: square"/>
     </g>
     <g id="line2d_9">
      <g>
       <use xlink:href="#m1eeac15840" x="95.082667" y="651.027324" style="stroke: #000000; stroke-width: 0.8"/>
      </g>
     </g>
     <g id="text_8">
      <!-- 5 -->
      <g transform="translate(81.720167 654.826543) scale(0.1 -0.1)">
       <use xlink:href="#DejaVuSans-35"/>
      </g>
     </g>
    </g>
    <g id="ytick_3">
     <g id="line2d_10">
      <path d="M 95.082667 528.003597 
L 1747.925333 528.003597 
" clip-path="url(#p5b99f1ae89)" style="fill: none; stroke: #b0b0b0; stroke-opacity: 0.25; stroke-width: 0.8; stroke-linecap: square"/>
     </g>
     <g id="line2d_11">
      <g>
       <use xlink:href="#m1eeac15840" x="95.082667" y="528.003597" style="stroke: #000000; stroke-width: 0.8"/>
      </g>
     </g>
     <g id="text_9">
      <!-- 10 -->
      <g transform="translate(75.357667 531.802815) scale(0.1 -0.1)">
       <use xlink:href="#DejaVuSans-31"/>
       <use xlink:href="#DejaVuSans-30" transform="translate(63.623047 0)"/>
      </g>
     </g>
    </g>
    <g id="ytick_4">
     <g id="line2d_12">
      <path d="M 95.082667 404.979869 
L 1747.925333 404.979869 
" clip-path="url(#p5b99f1ae89)" style="fill: none; stroke: #b0b0b0; stroke-opacity: 0.25; stroke-width: 0.8; stroke-linecap: square"/>
     </g>
     <g id="line2d_13">
      <g>
       <use xlink:href="#m1eeac15840" x="95.082667" y="404.979869" style="stroke: #000000; stroke-width: 0.8"/>
      </g>
     </g>
     <g id="text_10">
      <!-- 15 -->
      <g transform="translate(75.357667 408.779088) scale(0.1 -0.1)">
       <use xlink:href="#DejaVuSans-31"/>
       <use xlink:href="#DejaVuSans-35" transform="translate(63.623047 0)"/>
      </g>
     </g>
    </g>
    <g id="ytick_5">
     <g id="line2d_14">
      <path d="M 95.082667 281.956142 
L 1747.925333 281.956142 
" clip-path="url(#p5b99f1ae89)" style="fill: none; stroke: #b0b0b0; stroke-opacity: 0.25; stroke-width: 0.8; stroke-linecap: square"/>
     </g>
     <g id="line2d_15">
      <g>
       <use xlink:href="#m1eeac15840" x="95.082667" y="281.956142" style="stroke: #000000; stroke-width: 0.8"/>
      </g>
     </g>
     <g id="text_11">
      <!-- 20 -->
      <g transform="translate(75.357667 285.75536) scale(0.1 -0.1)">
       <use xlink:href="#DejaVuSans-32"/>
       <use xlink:href="#DejaVuSans-30" transform="translate(63.623047 0)"/>
      </g>
     </g>
    </g>
    <g id="ytick_6">
     <g id="line2d_16">
      <path d="M 95.082667 158.932414 
L 1747.925333 158.932414 
" clip-path="url(#p5b99f1ae89)" style="fill: none; stroke: #b0b0b0; stroke-opacity: 0.25; stroke-width: 0.8; stroke-linecap: square"/>
     </g>
     <g id="line2d_17">
      <g>
       <use xlink:href="#m1eeac15840" x="95.082667" y="158.932414" style="stroke: #000000; stroke-width: 0.8"/>
      </g>
     </g>
     <g id="text_12">
      <!-- 25 -->
      <g transform="translate(75.357667 162.731633) scale(0.1 -0.1)">
       <use xlink:href="#DejaVuSans-32"/>
       <use xlink:href="#DejaVuSans-35" transform="translate(63.623047 0)"/>
      </g>
     </g>
    </g>
    <g id="text_13">
     <!-- Regen in mm -->
     <g transform="translate(69.277979 455.917161) rotate(-90) scale(0.1 -0.1)">
      <defs>
       <path id="DejaVuSans-52" d="M 2841 2188 
Q 3044 2119 3236 1894 
Q 3428 1669 3622 1275 
L 4263 0 
L 3584 0 
L 2988 1197 
Q 2756 1666 2539 1819 
Q 2322 1972 1947 1972 
L 1259 1972 
L 1259 0 
L 628 0 
L 628 4666 
L 2053 4666 
Q 2853 4666 3247 4331 
Q 3641 3997 3641 3322 
Q 3641 2881 3436 2590 
Q 3231 2300 2841 2188 
z
M 1259 4147 
L 1259 2491 
L 2053 2491 
Q 2509 2491 2742 2702 
Q 2975 2913 2975 3322 
Q 2975 3731 2742 3939 
Q 2509 4147 2053 4147 
L 1259 4147 
z
" transform="scale(0.015625)"/>
       <path id="DejaVuSans-65" d="M 3597 1894 
L 3597 1613 
L 953 1613 
Q 991 1019 1311 708 
Q 1631 397 2203 397 
Q 2534 397 2845 478 
Q 3156 559 3463 722 
L 3463 178 
Q 3153 47 2828 -22 
Q 2503 -91 2169 -91 
Q 1331 -91 842 396 
Q 353 884 353 1716 
Q 353 2575 817 3079 
Q 1281 3584 2069 3584 
Q 2775 3584 3186 3129 
Q 3597 2675 3597 1894 
z
M 3022 2063 
Q 3016 2534 2758 2815 
Q 2500 3097 2075 3097 
Q 1594 3097 1305 2825 
Q 1016 2553 972 2059 
L 3022 2063 
z
" transform="scale(0.015625)"/>
       <path id="DejaVuSans-67" d="M 2906 1791 
Q 2906 2416 2648 2759 
Q 2391 3103 1925 3103 
Q 1463 3103 1205 2759 
Q 947 2416 947 1791 
Q 947 1169 1205 825 
Q 1463 481 1925 481 
Q 2391 481 2648 825 
Q 2906 1169 2906 1791 
z
M 3481 434 
Q 3481 -459 3084 -895 
Q 2688 -1331 1869 -1331 
Q 1566 -1331 1297 -1286 
Q 1028 -1241 775 -1147 
L 775 -588 
Q 1028 -725 1275 -790 
Q 1522 -856 1778 -856 
Q 2344 -856 2625 -561 
Q 2906 -266 2906 331 
L 2906 616 
Q 2728 306 2450 153 
Q 2172 0 1784 0 
Q 1141 0 747 490 
Q 353 981 353 1791 
Q 353 2603 747 3093 
Q 1141 3584 1784 3584 
Q 2172 3584 2450 3431 
Q 2728 3278 2906 2969 
L 2906 3500 
L 3481 3500 
L 3481 434 
z
" transform="scale(0.015625)"/>
       <path id="DejaVuSans-6e" d="M 3513 2113 
L 3513 0 
L 2938 0 
L 2938 2094 
Q 2938 2591 2744 2837 
Q 2550 3084 2163 3084 
Q 1697 3084 1428 2787 
Q 1159 2491 1159 1978 
L 1159 0 
L 581 0 
L 581 3500 
L 1159 3500 
L 1159 2956 
Q 1366 3272 1645 3428 
Q 1925 3584 2291 3584 
Q 2894 3584 3203 3211 
Q 3513 2838 3513 2113 
z
" transform="scale(0.015625)"/>
       <path id="DejaVuSans-20" transform="scale(0.015625)"/>
       <path id="DejaVuSans-69" d="M 603 3500 
L 1178 3500 
L 1178 0 
L 603 0 
L 603 3500 
z
M 603 4863 
L 1178 4863 
L 1178 4134 
L 603 4134 
L 603 4863 
z
" transform="scale(0.015625)"/>
      </defs>
      <use xlink:href="#DejaVuSans-52"/>
      <use xlink:href="#DejaVuSans-65" transform="translate(64.982422 0)"/>
      <use xlink:href="#DejaVuSans-67" transform="translate(126.505859 0)"/>
      <use xlink:href="#DejaVuSans-65" transform="translate(189.982422 0)"/>
      <use xlink:href="#DejaVuSans-6e" transform="translate(251.505859 0)"/>
      <use xlink:href="#DejaVuSans-20" transform="translate(314.884766 0)"/>
      <use xlink:href="#DejaVuSans-69" transform="translate(346.671875 0)"/>
      <use xlink:href="#DejaVuSans-6e" transform="translate(374.455078 0)"/>
      <use xlink:href="#DejaVuSans-20" transform="translate(437.833984 0)"/>
      <use xlink:href="#DejaVuSans-6d" transform="translate(469.621094 0)"/>
      <use xlink:href="#DejaVuSans-6d" transform="translate(567.033203 0)"/>
     </g>
    </g>
   </g>
   <g id="patch_155">
    <path d="M 95.082667 774.051052 
L 95.082667 71.33952 
" style="fill: none; stroke: #000000; stroke-width: 0.8; stroke-linejoin: miter; stroke-linecap: square"/>
   </g>
   <g id="patch_156">
    <path d="M 1747.925333 774.051052 
L 1747.925333 71.33952 
" style="fill: none; stroke: #000000; stroke-width: 0.8; stroke-linejoin: miter; stroke-linecap: square"/>
   </g>
   <g id="patch_157">
    <path d="M 95.082667 774.051052 
L 1747.925333 774.051052 
" style="fill: none; stroke: #000000; stroke-width: 0.8; stroke-linejoin: miter; stroke-linecap: square"/>
   </g>
   <g id="patch_158">
    <path d="M 95.082667 71.33952 
L 1747.925333 71.33952 
" style="fill: none; stroke: #000000; stroke-width: 0.8; stroke-linejoin: miter; stroke-linecap: square"/>
   </g>
   <g id="text_14">
    <!-- ing_driessenstraat probe 1 met regen data -->
    <g transform="translate(792.80025 65.33952) scale(0.12 -0.12)">
     <defs>
      <path id="DejaVuSans-5f" d="M 3263 -1063 
L 3263 -1509 
L -63 -1509 
L -63 -1063 
L 3263 -1063 
z
" transform="scale(0.015625)"/>
      <path id="DejaVuSans-64" d="M 2906 2969 
L 2906 4863 
L 3481 4863 
L 3481 0 
L 2906 0 
L 2906 525 
Q 2725 213 2448 61 
Q 2172 -91 1784 -91 
Q 1150 -91 751 415 
Q 353 922 353 1747 
Q 353 2572 751 3078 
Q 1150 3584 1784 3584 
Q 2172 3584 2448 3432 
Q 2725 3281 2906 2969 
z
M 947 1747 
Q 947 1113 1208 752 
Q 1469 391 1925 391 
Q 2381 391 2643 752 
Q 2906 1113 2906 1747 
Q 2906 2381 2643 2742 
Q 2381 3103 1925 3103 
Q 1469 3103 1208 2742 
Q 947 2381 947 1747 
z
" transform="scale(0.015625)"/>
      <path id="DejaVuSans-72" d="M 2631 2963 
Q 2534 3019 2420 3045 
Q 2306 3072 2169 3072 
Q 1681 3072 1420 2755 
Q 1159 2438 1159 1844 
L 1159 0 
L 581 0 
L 581 3500 
L 1159 3500 
L 1159 2956 
Q 1341 3275 1631 3429 
Q 1922 3584 2338 3584 
Q 2397 3584 2469 3576 
Q 2541 3569 2628 3553 
L 2631 2963 
z
" transform="scale(0.015625)"/>
      <path id="DejaVuSans-73" d="M 2834 3397 
L 2834 2853 
Q 2591 2978 2328 3040 
Q 2066 3103 1784 3103 
Q 1356 3103 1142 2972 
Q 928 2841 928 2578 
Q 928 2378 1081 2264 
Q 1234 2150 1697 2047 
L 1894 2003 
Q 2506 1872 2764 1633 
Q 3022 1394 3022 966 
Q 3022 478 2636 193 
Q 2250 -91 1575 -91 
Q 1294 -91 989 -36 
Q 684 19 347 128 
L 347 722 
Q 666 556 975 473 
Q 1284 391 1588 391 
Q 1994 391 2212 530 
Q 2431 669 2431 922 
Q 2431 1156 2273 1281 
Q 2116 1406 1581 1522 
L 1381 1569 
Q 847 1681 609 1914 
Q 372 2147 372 2553 
Q 372 3047 722 3315 
Q 1072 3584 1716 3584 
Q 2034 3584 2315 3537 
Q 2597 3491 2834 3397 
z
" transform="scale(0.015625)"/>
      <path id="DejaVuSans-70" d="M 1159 525 
L 1159 -1331 
L 581 -1331 
L 581 3500 
L 1159 3500 
L 1159 2969 
Q 1341 3281 1617 3432 
Q 1894 3584 2278 3584 
Q 2916 3584 3314 3078 
Q 3713 2572 3713 1747 
Q 3713 922 3314 415 
Q 2916 -91 2278 -91 
Q 1894 -91 1617 61 
Q 1341 213 1159 525 
z
M 3116 1747 
Q 3116 2381 2855 2742 
Q 2594 3103 2138 3103 
Q 1681 3103 1420 2742 
Q 1159 2381 1159 1747 
Q 1159 1113 1420 752 
Q 1681 391 2138 391 
Q 2594 391 2855 752 
Q 3116 1113 3116 1747 
z
" transform="scale(0.015625)"/>
      <path id="DejaVuSans-6f" d="M 1959 3097 
Q 1497 3097 1228 2736 
Q 959 2375 959 1747 
Q 959 1119 1226 758 
Q 1494 397 1959 397 
Q 2419 397 2687 759 
Q 2956 1122 2956 1747 
Q 2956 2369 2687 2733 
Q 2419 3097 1959 3097 
z
M 1959 3584 
Q 2709 3584 3137 3096 
Q 3566 2609 3566 1747 
Q 3566 888 3137 398 
Q 2709 -91 1959 -91 
Q 1206 -91 779 398 
Q 353 888 353 1747 
Q 353 2609 779 3096 
Q 1206 3584 1959 3584 
z
" transform="scale(0.015625)"/>
      <path id="DejaVuSans-62" d="M 3116 1747 
Q 3116 2381 2855 2742 
Q 2594 3103 2138 3103 
Q 1681 3103 1420 2742 
Q 1159 2381 1159 1747 
Q 1159 1113 1420 752 
Q 1681 391 2138 391 
Q 2594 391 2855 752 
Q 3116 1113 3116 1747 
z
M 1159 2969 
Q 1341 3281 1617 3432 
Q 1894 3584 2278 3584 
Q 2916 3584 3314 3078 
Q 3713 2572 3713 1747 
Q 3713 922 3314 415 
Q 2916 -91 2278 -91 
Q 1894 -91 1617 61 
Q 1341 213 1159 525 
L 1159 0 
L 581 0 
L 581 4863 
L 1159 4863 
L 1159 2969 
z
" transform="scale(0.015625)"/>
     </defs>
     <use xlink:href="#DejaVuSans-69"/>
     <use xlink:href="#DejaVuSans-6e" transform="translate(27.783203 0)"/>
     <use xlink:href="#DejaVuSans-67" transform="translate(91.162109 0)"/>
     <use xlink:href="#DejaVuSans-5f" transform="translate(154.638672 0)"/>
     <use xlink:href="#DejaVuSans-64" transform="translate(204.638672 0)"/>
     <use xlink:href="#DejaVuSans-72" transform="translate(268.115234 0)"/>
     <use xlink:href="#DejaVuSans-69" transform="translate(309.228516 0)"/>
     <use xlink:href="#DejaVuSans-65" transform="translate(337.011719 0)"/>
     <use xlink:href="#DejaVuSans-73" transform="translate(398.535156 0)"/>
     <use xlink:href="#DejaVuSans-73" transform="translate(450.634766 0)"/>
     <use xlink:href="#DejaVuSans-65" transform="translate(502.734375 0)"/>
     <use xlink:href="#DejaVuSans-6e" transform="translate(564.257812 0)"/>
     <use xlink:href="#DejaVuSans-73" transform="translate(627.636719 0)"/>
     <use xlink:href="#DejaVuSans-74" transform="translate(679.736328 0)"/>
     <use xlink:href="#DejaVuSans-72" transform="translate(718.945312 0)"/>
     <use xlink:href="#DejaVuSans-61" transform="translate(760.058594 0)"/>
     <use xlink:href="#DejaVuSans-61" transform="translate(821.337891 0)"/>
     <use xlink:href="#DejaVuSans-74" transform="translate(882.617188 0)"/>
     <use xlink:href="#DejaVuSans-20" transform="translate(921.826172 0)"/>
     <use xlink:href="#DejaVuSans-70" transform="translate(953.613281 0)"/>
     <use xlink:href="#DejaVuSans-72" transform="translate(1017.089844 0)"/>
     <use xlink:href="#DejaVuSans-6f" transform="translate(1055.953125 0)"/>
     <use xlink:href="#DejaVuSans-62" transform="translate(1117.134766 0)"/>
     <use xlink:href="#DejaVuSans-65" transform="translate(1180.611328 0)"/>
     <use xlink:href="#DejaVuSans-20" transform="translate(1242.134766 0)"/>
     <use xlink:href="#DejaVuSans-31" transform="translate(1273.921875 0)"/>
     <use xlink:href="#DejaVuSans-20" transform="translate(1337.544922 0)"/>
     <use xlink:href="#DejaVuSans-6d" transform="translate(1369.332031 0)"/>
     <use xlink:href="#DejaVuSans-65" transform="translate(1466.744141 0)"/>
     <use xlink:href="#DejaVuSans-74" transform="translate(1528.267578 0)"/>
     <use xlink:href="#DejaVuSans-20" transform="translate(1567.476562 0)"/>
     <use xlink:href="#DejaVuSans-72" transform="translate(1599.263672 0)"/>
     <use xlink:href="#DejaVuSans-65" transform="translate(1638.126953 0)"/>
     <use xlink:href="#DejaVuSans-67" transform="translate(1699.650391 0)"/>
     <use xlink:href="#DejaVuSans-65" transform="translate(1763.126953 0)"/>
     <use xlink:href="#DejaVuSans-6e" transform="translate(1824.650391 0)"/>
     <use xlink:href="#DejaVuSans-20" transform="translate(1888.029297 0)"/>
     <use xlink:href="#DejaVuSans-64" transform="translate(1919.816406 0)"/>
     <use xlink:href="#DejaVuSans-61" transform="translate(1983.292969 0)"/>
     <use xlink:href="#DejaVuSans-74" transform="translate(2044.572266 0)"/>
     <use xlink:href="#DejaVuSans-61" transform="translate(2083.78125 0)"/>
    </g>
   </g>
   <g id="legend_1">
    <g id="patch_159">
     <path d="M 102.082667 108.69577 
L 248.785792 108.69577 
Q 250.785792 108.69577 250.785792 106.69577 
L 250.785792 78.33952 
Q 250.785792 76.33952 248.785792 76.33952 
L 102.082667 76.33952 
Q 100.082667 76.33952 100.082667 78.33952 
L 100.082667 106.69577 
Q 100.082667 108.69577 102.082667 108.69577 
z
" style="fill: #ffffff; opacity: 0.8; stroke: #cccccc; stroke-linejoin: miter"/>
    </g>
    <g id="patch_160">
     <path d="M 104.082667 87.937958 
L 124.082667 87.937958 
L 124.082667 80.937958 
L 104.082667 80.937958 
z
" style="fill: #1f77b4; opacity: 0.6"/>
    </g>
    <g id="text_15">
     <!-- Regen (mm) -->
     <g transform="translate(132.082667 87.937958) scale(0.1 -0.1)">
      <defs>
       <path id="DejaVuSans-28" d="M 1984 4856 
Q 1566 4138 1362 3434 
Q 1159 2731 1159 2009 
Q 1159 1288 1364 580 
Q 1569 -128 1984 -844 
L 1484 -844 
Q 1016 -109 783 600 
Q 550 1309 550 2009 
Q 550 2706 781 3412 
Q 1013 4119 1484 4856 
L 1984 4856 
z
" transform="scale(0.015625)"/>
       <path id="DejaVuSans-29" d="M 513 4856 
L 1013 4856 
Q 1481 4119 1714 3412 
Q 1947 2706 1947 2009 
Q 1947 1309 1714 600 
Q 1481 -109 1013 -844 
L 513 -844 
Q 928 -128 1133 580 
Q 1338 1288 1338 2009 
Q 1338 2731 1133 3434 
Q 928 4138 513 4856 
z
" transform="scale(0.015625)"/>
      </defs>
      <use xlink:href="#DejaVuSans-52"/>
      <use xlink:href="#DejaVuSans-65" transform="translate(64.982422 0)"/>
      <use xlink:href="#DejaVuSans-67" transform="translate(126.505859 0)"/>
      <use xlink:href="#DejaVuSans-65" transform="translate(189.982422 0)"/>
      <use xlink:href="#DejaVuSans-6e" transform="translate(251.505859 0)"/>
      <use xlink:href="#DejaVuSans-20" transform="translate(314.884766 0)"/>
      <use xlink:href="#DejaVuSans-28" transform="translate(346.671875 0)"/>
      <use xlink:href="#DejaVuSans-6d" transform="translate(385.685547 0)"/>
      <use xlink:href="#DejaVuSans-6d" transform="translate(483.097656 0)"/>
      <use xlink:href="#DejaVuSans-29" transform="translate(580.509766 0)"/>
     </g>
    </g>
    <g id="line2d_18">
     <path d="M 104.082667 99.116083 
L 114.082667 99.116083 
L 124.082667 99.116083 
" style="fill: none; stroke: #1f77b4; stroke-width: 1.5; stroke-linecap: square"/>
     <defs>
      <path id="m3f2a871a69" d="M 0 1.5 
C 0.397805 1.5 0.77937 1.341951 1.06066 1.06066 
C 1.341951 0.77937 1.5 0.397805 1.5 0 
C 1.5 -0.397805 1.341951 -0.77937 1.06066 -1.06066 
C 0.77937 -1.341951 0.397805 -1.5 0 -1.5 
C -0.397805 -1.5 -0.77937 -1.341951 -1.06066 -1.06066 
C -1.341951 -0.77937 -1.5 -0.397805 -1.5 0 
C -1.5 0.397805 -1.341951 0.77937 -1.06066 1.06066 
C -0.77937 1.341951 -0.397805 1.5 0 1.5 
z
" style="stroke: #1f77b4"/>
     </defs>
     <g>
      <use xlink:href="#m3f2a871a69" x="114.082667" y="99.116083" style="fill: #1f77b4; stroke: #1f77b4"/>
     </g>
    </g>
    <g id="text_16">
     <!-- Relatieve permittiviteit -->
     <g transform="translate(132.082667 102.616083) scale(0.1 -0.1)">
      <defs>
       <path id="DejaVuSans-6c" d="M 603 4863 
L 1178 4863 
L 1178 0 
L 603 0 
L 603 4863 
z
" transform="scale(0.015625)"/>
       <path id="DejaVuSans-76" d="M 191 3500 
L 800 3500 
L 1894 563 
L 2988 3500 
L 3597 3500 
L 2284 0 
L 1503 0 
L 191 3500 
z
" transform="scale(0.015625)"/>
      </defs>
      <use xlink:href="#DejaVuSans-52"/>
      <use xlink:href="#DejaVuSans-65" transform="translate(64.982422 0)"/>
      <use xlink:href="#DejaVuSans-6c" transform="translate(126.505859 0)"/>
      <use xlink:href="#DejaVuSans-61" transform="translate(154.289062 0)"/>
      <use xlink:href="#DejaVuSans-74" transform="translate(215.568359 0)"/>
      <use xlink:href="#DejaVuSans-69" transform="translate(254.777344 0)"/>
      <use xlink:href="#DejaVuSans-65" transform="translate(282.560547 0)"/>
      <use xlink:href="#DejaVuSans-76" transform="translate(344.083984 0)"/>
      <use xlink:href="#DejaVuSans-65" transform="translate(403.263672 0)"/>
      <use xlink:href="#DejaVuSans-20" transform="translate(464.787109 0)"/>
      <use xlink:href="#DejaVuSans-70" transform="translate(496.574219 0)"/>
      <use xlink:href="#DejaVuSans-65" transform="translate(560.050781 0)"/>
      <use xlink:href="#DejaVuSans-72" transform="translate(621.574219 0)"/>
      <use xlink:href="#DejaVuSans-6d" transform="translate(660.9375 0)"/>
      <use xlink:href="#DejaVuSans-69" transform="translate(758.349609 0)"/>
      <use xlink:href="#DejaVuSans-74" transform="translate(786.132812 0)"/>
      <use xlink:href="#DejaVuSans-74" transform="translate(825.341797 0)"/>
      <use xlink:href="#DejaVuSans-69" transform="translate(864.550781 0)"/>
      <use xlink:href="#DejaVuSans-76" transform="translate(892.333984 0)"/>
      <use xlink:href="#DejaVuSans-69" transform="translate(951.513672 0)"/>
      <use xlink:href="#DejaVuSans-74" transform="translate(979.296875 0)"/>
      <use xlink:href="#DejaVuSans-65" transform="translate(1018.505859 0)"/>
      <use xlink:href="#DejaVuSans-69" transform="translate(1080.029297 0)"/>
      <use xlink:href="#DejaVuSans-74" transform="translate(1107.8125 0)"/>
     </g>
    </g>
   </g>
  </g>
  <g id="axes_3">
   <g id="matplotlib.axis_4">
    <g id="ytick_7">
     <g id="line2d_19">
      <defs>
       <path id="mebc01ea65d" d="M 0 0 
L 3.5 0 
" style="stroke: #000000; stroke-width: 0.8"/>
      </defs>
      <g>
       <use xlink:href="#mebc01ea65d" x="1747.925333" y="652.676727" style="stroke: #000000; stroke-width: 0.8"/>
      </g>
     </g>
     <g id="text_17">
      <!-- 18 -->
      <g transform="translate(1754.925333 656.475946) scale(0.1 -0.1)">
       <use xlink:href="#DejaVuSans-31"/>
       <use xlink:href="#DejaVuSans-38" transform="translate(63.623047 0)"/>
      </g>
     </g>
    </g>
    <g id="ytick_8">
     <g id="line2d_20">
      <g>
       <use xlink:href="#mebc01ea65d" x="1747.925333" y="527.814051" style="stroke: #000000; stroke-width: 0.8"/>
      </g>
     </g>
     <g id="text_18">
      <!-- 20 -->
      <g transform="translate(1754.925333 531.61327) scale(0.1 -0.1)">
       <use xlink:href="#DejaVuSans-32"/>
       <use xlink:href="#DejaVuSans-30" transform="translate(63.623047 0)"/>
      </g>
     </g>
    </g>
    <g id="ytick_9">
     <g id="line2d_21">
      <g>
       <use xlink:href="#mebc01ea65d" x="1747.925333" y="402.951375" style="stroke: #000000; stroke-width: 0.8"/>
      </g>
     </g>
     <g id="text_19">
      <!-- 22 -->
      <g transform="translate(1754.925333 406.750594) scale(0.1 -0.1)">
       <use xlink:href="#DejaVuSans-32"/>
       <use xlink:href="#DejaVuSans-32" transform="translate(63.623047 0)"/>
      </g>
     </g>
    </g>
    <g id="ytick_10">
     <g id="line2d_22">
      <g>
       <use xlink:href="#mebc01ea65d" x="1747.925333" y="278.088699" style="stroke: #000000; stroke-width: 0.8"/>
      </g>
     </g>
     <g id="text_20">
      <!-- 24 -->
      <g transform="translate(1754.925333 281.887918) scale(0.1 -0.1)">
       <defs>
        <path id="DejaVuSans-34" d="M 2419 4116 
L 825 1625 
L 2419 1625 
L 2419 4116 
z
M 2253 4666 
L 3047 4666 
L 3047 1625 
L 3713 1625 
L 3713 1100 
L 3047 1100 
L 3047 0 
L 2419 0 
L 2419 1100 
L 313 1100 
L 313 1709 
L 2253 4666 
z
" transform="scale(0.015625)"/>
       </defs>
       <use xlink:href="#DejaVuSans-32"/>
       <use xlink:href="#DejaVuSans-34" transform="translate(63.623047 0)"/>
      </g>
     </g>
    </g>
    <g id="ytick_11">
     <g id="line2d_23">
      <g>
       <use xlink:href="#mebc01ea65d" x="1747.925333" y="153.226024" style="stroke: #000000; stroke-width: 0.8"/>
      </g>
     </g>
     <g id="text_21">
      <!-- 26 -->
      <g transform="translate(1754.925333 157.025242) scale(0.1 -0.1)">
       <defs>
        <path id="DejaVuSans-36" d="M 2113 2584 
Q 1688 2584 1439 2293 
Q 1191 2003 1191 1497 
Q 1191 994 1439 701 
Q 1688 409 2113 409 
Q 2538 409 2786 701 
Q 3034 994 3034 1497 
Q 3034 2003 2786 2293 
Q 2538 2584 2113 2584 
z
M 3366 4563 
L 3366 3988 
Q 3128 4100 2886 4159 
Q 2644 4219 2406 4219 
Q 1781 4219 1451 3797 
Q 1122 3375 1075 2522 
Q 1259 2794 1537 2939 
Q 1816 3084 2150 3084 
Q 2853 3084 3261 2657 
Q 3669 2231 3669 1497 
Q 3669 778 3244 343 
Q 2819 -91 2113 -91 
Q 1303 -91 875 529 
Q 447 1150 447 2328 
Q 447 3434 972 4092 
Q 1497 4750 2381 4750 
Q 2619 4750 2861 4703 
Q 3103 4656 3366 4563 
z
" transform="scale(0.015625)"/>
       </defs>
       <use xlink:href="#DejaVuSans-32"/>
       <use xlink:href="#DejaVuSans-36" transform="translate(63.623047 0)"/>
      </g>
     </g>
    </g>
    <g id="text_22">
     <!-- Relatieve permittiviteit -->
     <g transform="translate(1779.248771 480.046848) rotate(-90) scale(0.1 -0.1)">
      <use xlink:href="#DejaVuSans-52"/>
      <use xlink:href="#DejaVuSans-65" transform="translate(64.982422 0)"/>
      <use xlink:href="#DejaVuSans-6c" transform="translate(126.505859 0)"/>
      <use xlink:href="#DejaVuSans-61" transform="translate(154.289062 0)"/>
      <use xlink:href="#DejaVuSans-74" transform="translate(215.568359 0)"/>
      <use xlink:href="#DejaVuSans-69" transform="translate(254.777344 0)"/>
      <use xlink:href="#DejaVuSans-65" transform="translate(282.560547 0)"/>
      <use xlink:href="#DejaVuSans-76" transform="translate(344.083984 0)"/>
      <use xlink:href="#DejaVuSans-65" transform="translate(403.263672 0)"/>
      <use xlink:href="#DejaVuSans-20" transform="translate(464.787109 0)"/>
      <use xlink:href="#DejaVuSans-70" transform="translate(496.574219 0)"/>
      <use xlink:href="#DejaVuSans-65" transform="translate(560.050781 0)"/>
      <use xlink:href="#DejaVuSans-72" transform="translate(621.574219 0)"/>
      <use xlink:href="#DejaVuSans-6d" transform="translate(660.9375 0)"/>
      <use xlink:href="#DejaVuSans-69" transform="translate(758.349609 0)"/>
      <use xlink:href="#DejaVuSans-74" transform="translate(786.132812 0)"/>
      <use xlink:href="#DejaVuSans-74" transform="translate(825.341797 0)"/>
      <use xlink:href="#DejaVuSans-69" transform="translate(864.550781 0)"/>
      <use xlink:href="#DejaVuSans-76" transform="translate(892.333984 0)"/>
      <use xlink:href="#DejaVuSans-69" transform="translate(951.513672 0)"/>
      <use xlink:href="#DejaVuSans-74" transform="translate(979.296875 0)"/>
      <use xlink:href="#DejaVuSans-65" transform="translate(1018.505859 0)"/>
      <use xlink:href="#DejaVuSans-69" transform="translate(1080.029297 0)"/>
      <use xlink:href="#DejaVuSans-74" transform="translate(1107.8125 0)"/>
     </g>
    </g>
   </g>
   <g id="line2d_24">
    <path d="M 174.251084 676.234152 
L 184.349096 130.334533 
L 194.447109 157.839006 
L 204.545121 223.609142 
L 214.643133 181.278505 
L 224.741146 183.232085 
L 234.839158 179.837381 
L 244.93717 244.035242 
L 255.035183 286.751048 
L 265.133195 295.109454 
L 275.231208 337.765714 
L 285.32922 347.054517 
L 295.427232 383.837781 
L 305.525245 388.436089 
L 315.623257 419.599732 
L 325.721269 365.492573 
L 335.819282 261.731689 
L 356.015307 175.326717 
L 366.113319 103.280953 
L 376.211331 134.808779 
L 386.309344 135.745249 
L 396.407356 193.18208 
L 406.505369 235.219181 
L 416.603381 284.800068 
L 426.701393 275.903603 
L 436.799406 301.656529 
L 446.897418 305.090253 
L 456.99543 378.134918 
L 467.093443 398.456319 
L 477.191455 462.261146 
L 487.289468 470.002632 
L 497.38748 464.7584 
L 507.485492 496.97297 
L 517.583505 532.184245 
L 527.681517 563.191809 
L 547.877542 625.956114 
L 557.975554 614.905767 
L 568.073567 615.686159 
L 578.171579 622.584822 
L 588.269591 620.462157 
L 598.367604 629.202544 
L 608.465616 606.102949 
L 618.563629 586.0833 
L 628.661641 598.569567 
L 638.759653 593.117231 
L 648.857666 602.315448 
L 658.955678 597.268915 
L 669.05369 595.656105 
L 679.151703 603.980283 
L 689.249715 605.020806 
L 699.347728 584.782647 
L 709.44574 627.235957 
L 719.543752 655.673431 
L 729.641765 651.532152 
L 739.739777 647.213985 
L 749.83779 617.403021 
L 759.935802 570.787622 
L 770.033814 334.380956 
L 780.131827 235.219181 
L 790.229839 333.777453 
L 800.327851 175.326717 
L 810.425864 218.654066 
L 820.523876 296.818101 
L 830.621889 325.016255 
L 840.719901 394.460713 
L 850.817913 443.157157 
L 860.915926 487.233681 
L 871.013938 508.876545 
L 881.11195 534.161237 
L 891.209963 555.595996 
L 901.307975 570.017636 
L 911.405988 568.019833 
L 921.504 568.394421 
L 931.602012 596.113935 
L 941.700025 614.905767 
L 951.798037 630.513602 
L 961.89605 375.16943 
L 982.092074 480.678391 
L 992.190087 500.344262 
L 1002.288099 503.153673 
L 1012.386111 515.535888 
L 1022.484124 534.993655 
L 1032.582136 553.619004 
L 1042.680149 574.117293 
L 1052.778161 589.870801 
L 1062.876173 608.558581 
L 1072.974186 620.524588 
L 1083.072198 635.07109 
L 1093.17021 627.454466 
L 1103.268223 625.331801 
L 1113.366235 648.462612 
L 1123.464248 629.264975 
L 1133.56226 562.650738 
L 1143.660272 554.191291 
L 1153.758285 521.570917 
L 1163.856297 603.480833 
L 1173.95431 601.48303 
L 1184.052322 610.639626 
L 1194.150334 604.604597 
L 1204.248347 622.459959 
L 1214.346359 649.305435 
L 1224.444371 637.693206 
L 1234.542384 660.792801 
L 1244.640396 656.110451 
L 1254.738409 641.126929 
L 1264.836421 646.589671 
L 1274.934433 668.284561 
L 1285.032446 684.516709 
L 1295.130458 697.835395 
L 1305.228471 712.164873 
L 1315.326483 723.099276 
L 1325.424495 729.571325 
L 1335.522508 737.375242 
L 1345.62052 736.084994 
L 1355.718532 738.831973 
L 1365.816545 742.109618 
L 1375.914557 721.600924 
L 1386.01257 635.07109 
L 1396.110582 667.660248 
L 1406.208594 675.776322 
L 1416.306607 655.382085 
L 1426.404619 607.10185 
L 1436.502631 620.836745 
L 1446.600644 625.456664 
L 1456.698656 629.73321 
L 1466.796669 634.446776 
L 1476.894681 612.720671 
L 1486.992693 631.658176 
L 1497.090706 642.063399 
L 1507.188718 653.30104 
L 1517.286731 648.306533 
L 1527.384743 649.451108 
L 1537.482755 647.526142 
L 1557.67878 660.168487 
L 1567.776792 677.233053 
L 1577.874805 691.540235 
L 1587.972817 696.794872 
L 1598.07083 695.130037 
L 1608.168842 652.260518 
L 1618.266854 633.635169 
L 1638.462879 666.307569 
L 1648.560891 675.776322 
L 1658.658904 688.886903 
L 1668.756916 693.756547 
L 1668.756916 693.756547 
" clip-path="url(#p5b99f1ae89)" style="fill: none; stroke: #1f77b4; stroke-width: 1.5; stroke-linecap: square"/>
    <g clip-path="url(#p5b99f1ae89)">
     <use xlink:href="#m3f2a871a69" x="174.251084" y="676.234152" style="fill: #1f77b4; stroke: #1f77b4"/>
     <use xlink:href="#m3f2a871a69" x="184.349096" y="130.334533" style="fill: #1f77b4; stroke: #1f77b4"/>
     <use xlink:href="#m3f2a871a69" x="194.447109" y="157.839006" style="fill: #1f77b4; stroke: #1f77b4"/>
     <use xlink:href="#m3f2a871a69" x="204.545121" y="223.609142" style="fill: #1f77b4; stroke: #1f77b4"/>
     <use xlink:href="#m3f2a871a69" x="214.643133" y="181.278505" style="fill: #1f77b4; stroke: #1f77b4"/>
     <use xlink:href="#m3f2a871a69" x="224.741146" y="183.232085" style="fill: #1f77b4; stroke: #1f77b4"/>
     <use xlink:href="#m3f2a871a69" x="234.839158" y="179.837381" style="fill: #1f77b4; stroke: #1f77b4"/>
     <use xlink:href="#m3f2a871a69" x="244.93717" y="244.035242" style="fill: #1f77b4; stroke: #1f77b4"/>
     <use xlink:href="#m3f2a871a69" x="255.035183" y="286.751048" style="fill: #1f77b4; stroke: #1f77b4"/>
     <use xlink:href="#m3f2a871a69" x="265.133195" y="295.109454" style="fill: #1f77b4; stroke: #1f77b4"/>
     <use xlink:href="#m3f2a871a69" x="275.231208" y="337.765714" style="fill: #1f77b4; stroke: #1f77b4"/>
     <use xlink:href="#m3f2a871a69" x="285.32922" y="347.054517" style="fill: #1f77b4; stroke: #1f77b4"/>
     <use xlink:href="#m3f2a871a69" x="295.427232" y="383.837781" style="fill: #1f77b4; stroke: #1f77b4"/>
     <use xlink:href="#m3f2a871a69" x="305.525245" y="388.436089" style="fill: #1f77b4; stroke: #1f77b4"/>
     <use xlink:href="#m3f2a871a69" x="315.623257" y="419.599732" style="fill: #1f77b4; stroke: #1f77b4"/>
     <use xlink:href="#m3f2a871a69" x="325.721269" y="365.492573" style="fill: #1f77b4; stroke: #1f77b4"/>
     <use xlink:href="#m3f2a871a69" x="335.819282" y="261.731689" style="fill: #1f77b4; stroke: #1f77b4"/>
     <use xlink:href="#m3f2a871a69" x="345.917294" y="218.40434" style="fill: #1f77b4; stroke: #1f77b4"/>
     <use xlink:href="#m3f2a871a69" x="356.015307" y="175.326717" style="fill: #1f77b4; stroke: #1f77b4"/>
     <use xlink:href="#m3f2a871a69" x="366.113319" y="103.280953" style="fill: #1f77b4; stroke: #1f77b4"/>
     <use xlink:href="#m3f2a871a69" x="376.211331" y="134.808779" style="fill: #1f77b4; stroke: #1f77b4"/>
     <use xlink:href="#m3f2a871a69" x="386.309344" y="135.745249" style="fill: #1f77b4; stroke: #1f77b4"/>
     <use xlink:href="#m3f2a871a69" x="396.407356" y="193.18208" style="fill: #1f77b4; stroke: #1f77b4"/>
     <use xlink:href="#m3f2a871a69" x="406.505369" y="235.219181" style="fill: #1f77b4; stroke: #1f77b4"/>
     <use xlink:href="#m3f2a871a69" x="416.603381" y="284.800068" style="fill: #1f77b4; stroke: #1f77b4"/>
     <use xlink:href="#m3f2a871a69" x="426.701393" y="275.903603" style="fill: #1f77b4; stroke: #1f77b4"/>
     <use xlink:href="#m3f2a871a69" x="436.799406" y="301.656529" style="fill: #1f77b4; stroke: #1f77b4"/>
     <use xlink:href="#m3f2a871a69" x="446.897418" y="305.090253" style="fill: #1f77b4; stroke: #1f77b4"/>
     <use xlink:href="#m3f2a871a69" x="456.99543" y="378.134918" style="fill: #1f77b4; stroke: #1f77b4"/>
     <use xlink:href="#m3f2a871a69" x="467.093443" y="398.456319" style="fill: #1f77b4; stroke: #1f77b4"/>
     <use xlink:href="#m3f2a871a69" x="477.191455" y="462.261146" style="fill: #1f77b4; stroke: #1f77b4"/>
     <use xlink:href="#m3f2a871a69" x="487.289468" y="470.002632" style="fill: #1f77b4; stroke: #1f77b4"/>
     <use xlink:href="#m3f2a871a69" x="497.38748" y="464.7584" style="fill: #1f77b4; stroke: #1f77b4"/>
     <use xlink:href="#m3f2a871a69" x="507.485492" y="496.97297" style="fill: #1f77b4; stroke: #1f77b4"/>
     <use xlink:href="#m3f2a871a69" x="517.583505" y="532.184245" style="fill: #1f77b4; stroke: #1f77b4"/>
     <use xlink:href="#m3f2a871a69" x="527.681517" y="563.191809" style="fill: #1f77b4; stroke: #1f77b4"/>
     <use xlink:href="#m3f2a871a69" x="537.779529" y="594.615583" style="fill: #1f77b4; stroke: #1f77b4"/>
     <use xlink:href="#m3f2a871a69" x="547.877542" y="625.956114" style="fill: #1f77b4; stroke: #1f77b4"/>
     <use xlink:href="#m3f2a871a69" x="557.975554" y="614.905767" style="fill: #1f77b4; stroke: #1f77b4"/>
     <use xlink:href="#m3f2a871a69" x="568.073567" y="615.686159" style="fill: #1f77b4; stroke: #1f77b4"/>
     <use xlink:href="#m3f2a871a69" x="578.171579" y="622.584822" style="fill: #1f77b4; stroke: #1f77b4"/>
     <use xlink:href="#m3f2a871a69" x="588.269591" y="620.462157" style="fill: #1f77b4; stroke: #1f77b4"/>
     <use xlink:href="#m3f2a871a69" x="598.367604" y="629.202544" style="fill: #1f77b4; stroke: #1f77b4"/>
     <use xlink:href="#m3f2a871a69" x="608.465616" y="606.102949" style="fill: #1f77b4; stroke: #1f77b4"/>
     <use xlink:href="#m3f2a871a69" x="618.563629" y="586.0833" style="fill: #1f77b4; stroke: #1f77b4"/>
     <use xlink:href="#m3f2a871a69" x="628.661641" y="598.569567" style="fill: #1f77b4; stroke: #1f77b4"/>
     <use xlink:href="#m3f2a871a69" x="638.759653" y="593.117231" style="fill: #1f77b4; stroke: #1f77b4"/>
     <use xlink:href="#m3f2a871a69" x="648.857666" y="602.315448" style="fill: #1f77b4; stroke: #1f77b4"/>
     <use xlink:href="#m3f2a871a69" x="658.955678" y="597.268915" style="fill: #1f77b4; stroke: #1f77b4"/>
     <use xlink:href="#m3f2a871a69" x="669.05369" y="595.656105" style="fill: #1f77b4; stroke: #1f77b4"/>
     <use xlink:href="#m3f2a871a69" x="679.151703" y="603.980283" style="fill: #1f77b4; stroke: #1f77b4"/>
     <use xlink:href="#m3f2a871a69" x="689.249715" y="605.020806" style="fill: #1f77b4; stroke: #1f77b4"/>
     <use xlink:href="#m3f2a871a69" x="699.347728" y="584.782647" style="fill: #1f77b4; stroke: #1f77b4"/>
     <use xlink:href="#m3f2a871a69" x="709.44574" y="627.235957" style="fill: #1f77b4; stroke: #1f77b4"/>
     <use xlink:href="#m3f2a871a69" x="719.543752" y="655.673431" style="fill: #1f77b4; stroke: #1f77b4"/>
     <use xlink:href="#m3f2a871a69" x="729.641765" y="651.532152" style="fill: #1f77b4; stroke: #1f77b4"/>
     <use xlink:href="#m3f2a871a69" x="739.739777" y="647.213985" style="fill: #1f77b4; stroke: #1f77b4"/>
     <use xlink:href="#m3f2a871a69" x="749.83779" y="617.403021" style="fill: #1f77b4; stroke: #1f77b4"/>
     <use xlink:href="#m3f2a871a69" x="759.935802" y="570.787622" style="fill: #1f77b4; stroke: #1f77b4"/>
     <use xlink:href="#m3f2a871a69" x="770.033814" y="334.380956" style="fill: #1f77b4; stroke: #1f77b4"/>
     <use xlink:href="#m3f2a871a69" x="780.131827" y="235.219181" style="fill: #1f77b4; stroke: #1f77b4"/>
     <use xlink:href="#m3f2a871a69" x="790.229839" y="333.777453" style="fill: #1f77b4; stroke: #1f77b4"/>
     <use xlink:href="#m3f2a871a69" x="800.327851" y="175.326717" style="fill: #1f77b4; stroke: #1f77b4"/>
     <use xlink:href="#m3f2a871a69" x="810.425864" y="218.654066" style="fill: #1f77b4; stroke: #1f77b4"/>
     <use xlink:href="#m3f2a871a69" x="820.523876" y="296.818101" style="fill: #1f77b4; stroke: #1f77b4"/>
     <use xlink:href="#m3f2a871a69" x="830.621889" y="325.016255" style="fill: #1f77b4; stroke: #1f77b4"/>
     <use xlink:href="#m3f2a871a69" x="840.719901" y="394.460713" style="fill: #1f77b4; stroke: #1f77b4"/>
     <use xlink:href="#m3f2a871a69" x="850.817913" y="443.157157" style="fill: #1f77b4; stroke: #1f77b4"/>
     <use xlink:href="#m3f2a871a69" x="860.915926" y="487.233681" style="fill: #1f77b4; stroke: #1f77b4"/>
     <use xlink:href="#m3f2a871a69" x="871.013938" y="508.876545" style="fill: #1f77b4; stroke: #1f77b4"/>
     <use xlink:href="#m3f2a871a69" x="881.11195" y="534.161237" style="fill: #1f77b4; stroke: #1f77b4"/>
     <use xlink:href="#m3f2a871a69" x="891.209963" y="555.595996" style="fill: #1f77b4; stroke: #1f77b4"/>
     <use xlink:href="#m3f2a871a69" x="901.307975" y="570.017636" style="fill: #1f77b4; stroke: #1f77b4"/>
     <use xlink:href="#m3f2a871a69" x="911.405988" y="568.019833" style="fill: #1f77b4; stroke: #1f77b4"/>
     <use xlink:href="#m3f2a871a69" x="921.504" y="568.394421" style="fill: #1f77b4; stroke: #1f77b4"/>
     <use xlink:href="#m3f2a871a69" x="931.602012" y="596.113935" style="fill: #1f77b4; stroke: #1f77b4"/>
     <use xlink:href="#m3f2a871a69" x="941.700025" y="614.905767" style="fill: #1f77b4; stroke: #1f77b4"/>
     <use xlink:href="#m3f2a871a69" x="951.798037" y="630.513602" style="fill: #1f77b4; stroke: #1f77b4"/>
     <use xlink:href="#m3f2a871a69" x="961.89605" y="375.16943" style="fill: #1f77b4; stroke: #1f77b4"/>
     <use xlink:href="#m3f2a871a69" x="971.994062" y="428.079989" style="fill: #1f77b4; stroke: #1f77b4"/>
     <use xlink:href="#m3f2a871a69" x="982.092074" y="480.678391" style="fill: #1f77b4; stroke: #1f77b4"/>
     <use xlink:href="#m3f2a871a69" x="992.190087" y="500.344262" style="fill: #1f77b4; stroke: #1f77b4"/>
     <use xlink:href="#m3f2a871a69" x="1002.288099" y="503.153673" style="fill: #1f77b4; stroke: #1f77b4"/>
     <use xlink:href="#m3f2a871a69" x="1012.386111" y="515.535888" style="fill: #1f77b4; stroke: #1f77b4"/>
     <use xlink:href="#m3f2a871a69" x="1022.484124" y="534.993655" style="fill: #1f77b4; stroke: #1f77b4"/>
     <use xlink:href="#m3f2a871a69" x="1032.582136" y="553.619004" style="fill: #1f77b4; stroke: #1f77b4"/>
     <use xlink:href="#m3f2a871a69" x="1042.680149" y="574.117293" style="fill: #1f77b4; stroke: #1f77b4"/>
     <use xlink:href="#m3f2a871a69" x="1052.778161" y="589.870801" style="fill: #1f77b4; stroke: #1f77b4"/>
     <use xlink:href="#m3f2a871a69" x="1062.876173" y="608.558581" style="fill: #1f77b4; stroke: #1f77b4"/>
     <use xlink:href="#m3f2a871a69" x="1072.974186" y="620.524588" style="fill: #1f77b4; stroke: #1f77b4"/>
     <use xlink:href="#m3f2a871a69" x="1083.072198" y="635.07109" style="fill: #1f77b4; stroke: #1f77b4"/>
     <use xlink:href="#m3f2a871a69" x="1093.17021" y="627.454466" style="fill: #1f77b4; stroke: #1f77b4"/>
     <use xlink:href="#m3f2a871a69" x="1103.268223" y="625.331801" style="fill: #1f77b4; stroke: #1f77b4"/>
     <use xlink:href="#m3f2a871a69" x="1113.366235" y="648.462612" style="fill: #1f77b4; stroke: #1f77b4"/>
     <use xlink:href="#m3f2a871a69" x="1123.464248" y="629.264975" style="fill: #1f77b4; stroke: #1f77b4"/>
     <use xlink:href="#m3f2a871a69" x="1133.56226" y="562.650738" style="fill: #1f77b4; stroke: #1f77b4"/>
     <use xlink:href="#m3f2a871a69" x="1143.660272" y="554.191291" style="fill: #1f77b4; stroke: #1f77b4"/>
     <use xlink:href="#m3f2a871a69" x="1153.758285" y="521.570917" style="fill: #1f77b4; stroke: #1f77b4"/>
     <use xlink:href="#m3f2a871a69" x="1163.856297" y="603.480833" style="fill: #1f77b4; stroke: #1f77b4"/>
     <use xlink:href="#m3f2a871a69" x="1173.95431" y="601.48303" style="fill: #1f77b4; stroke: #1f77b4"/>
     <use xlink:href="#m3f2a871a69" x="1184.052322" y="610.639626" style="fill: #1f77b4; stroke: #1f77b4"/>
     <use xlink:href="#m3f2a871a69" x="1194.150334" y="604.604597" style="fill: #1f77b4; stroke: #1f77b4"/>
     <use xlink:href="#m3f2a871a69" x="1204.248347" y="622.459959" style="fill: #1f77b4; stroke: #1f77b4"/>
     <use xlink:href="#m3f2a871a69" x="1214.346359" y="649.305435" style="fill: #1f77b4; stroke: #1f77b4"/>
     <use xlink:href="#m3f2a871a69" x="1224.444371" y="637.693206" style="fill: #1f77b4; stroke: #1f77b4"/>
     <use xlink:href="#m3f2a871a69" x="1234.542384" y="660.792801" style="fill: #1f77b4; stroke: #1f77b4"/>
     <use xlink:href="#m3f2a871a69" x="1244.640396" y="656.110451" style="fill: #1f77b4; stroke: #1f77b4"/>
     <use xlink:href="#m3f2a871a69" x="1254.738409" y="641.126929" style="fill: #1f77b4; stroke: #1f77b4"/>
     <use xlink:href="#m3f2a871a69" x="1264.836421" y="646.589671" style="fill: #1f77b4; stroke: #1f77b4"/>
     <use xlink:href="#m3f2a871a69" x="1274.934433" y="668.284561" style="fill: #1f77b4; stroke: #1f77b4"/>
     <use xlink:href="#m3f2a871a69" x="1285.032446" y="684.516709" style="fill: #1f77b4; stroke: #1f77b4"/>
     <use xlink:href="#m3f2a871a69" x="1295.130458" y="697.835395" style="fill: #1f77b4; stroke: #1f77b4"/>
     <use xlink:href="#m3f2a871a69" x="1305.228471" y="712.164873" style="fill: #1f77b4; stroke: #1f77b4"/>
     <use xlink:href="#m3f2a871a69" x="1315.326483" y="723.099276" style="fill: #1f77b4; stroke: #1f77b4"/>
     <use xlink:href="#m3f2a871a69" x="1325.424495" y="729.571325" style="fill: #1f77b4; stroke: #1f77b4"/>
     <use xlink:href="#m3f2a871a69" x="1335.522508" y="737.375242" style="fill: #1f77b4; stroke: #1f77b4"/>
     <use xlink:href="#m3f2a871a69" x="1345.62052" y="736.084994" style="fill: #1f77b4; stroke: #1f77b4"/>
     <use xlink:href="#m3f2a871a69" x="1355.718532" y="738.831973" style="fill: #1f77b4; stroke: #1f77b4"/>
     <use xlink:href="#m3f2a871a69" x="1365.816545" y="742.109618" style="fill: #1f77b4; stroke: #1f77b4"/>
     <use xlink:href="#m3f2a871a69" x="1375.914557" y="721.600924" style="fill: #1f77b4; stroke: #1f77b4"/>
     <use xlink:href="#m3f2a871a69" x="1386.01257" y="635.07109" style="fill: #1f77b4; stroke: #1f77b4"/>
     <use xlink:href="#m3f2a871a69" x="1396.110582" y="667.660248" style="fill: #1f77b4; stroke: #1f77b4"/>
     <use xlink:href="#m3f2a871a69" x="1406.208594" y="675.776322" style="fill: #1f77b4; stroke: #1f77b4"/>
     <use xlink:href="#m3f2a871a69" x="1416.306607" y="655.382085" style="fill: #1f77b4; stroke: #1f77b4"/>
     <use xlink:href="#m3f2a871a69" x="1426.404619" y="607.10185" style="fill: #1f77b4; stroke: #1f77b4"/>
     <use xlink:href="#m3f2a871a69" x="1436.502631" y="620.836745" style="fill: #1f77b4; stroke: #1f77b4"/>
     <use xlink:href="#m3f2a871a69" x="1446.600644" y="625.456664" style="fill: #1f77b4; stroke: #1f77b4"/>
     <use xlink:href="#m3f2a871a69" x="1456.698656" y="629.73321" style="fill: #1f77b4; stroke: #1f77b4"/>
     <use xlink:href="#m3f2a871a69" x="1466.796669" y="634.446776" style="fill: #1f77b4; stroke: #1f77b4"/>
     <use xlink:href="#m3f2a871a69" x="1476.894681" y="612.720671" style="fill: #1f77b4; stroke: #1f77b4"/>
     <use xlink:href="#m3f2a871a69" x="1486.992693" y="631.658176" style="fill: #1f77b4; stroke: #1f77b4"/>
     <use xlink:href="#m3f2a871a69" x="1497.090706" y="642.063399" style="fill: #1f77b4; stroke: #1f77b4"/>
     <use xlink:href="#m3f2a871a69" x="1507.188718" y="653.30104" style="fill: #1f77b4; stroke: #1f77b4"/>
     <use xlink:href="#m3f2a871a69" x="1517.286731" y="648.306533" style="fill: #1f77b4; stroke: #1f77b4"/>
     <use xlink:href="#m3f2a871a69" x="1527.384743" y="649.451108" style="fill: #1f77b4; stroke: #1f77b4"/>
     <use xlink:href="#m3f2a871a69" x="1537.482755" y="647.526142" style="fill: #1f77b4; stroke: #1f77b4"/>
     <use xlink:href="#m3f2a871a69" x="1547.580768" y="653.821301" style="fill: #1f77b4; stroke: #1f77b4"/>
     <use xlink:href="#m3f2a871a69" x="1557.67878" y="660.168487" style="fill: #1f77b4; stroke: #1f77b4"/>
     <use xlink:href="#m3f2a871a69" x="1567.776792" y="677.233053" style="fill: #1f77b4; stroke: #1f77b4"/>
     <use xlink:href="#m3f2a871a69" x="1577.874805" y="691.540235" style="fill: #1f77b4; stroke: #1f77b4"/>
     <use xlink:href="#m3f2a871a69" x="1587.972817" y="696.794872" style="fill: #1f77b4; stroke: #1f77b4"/>
     <use xlink:href="#m3f2a871a69" x="1598.07083" y="695.130037" style="fill: #1f77b4; stroke: #1f77b4"/>
     <use xlink:href="#m3f2a871a69" x="1608.168842" y="652.260518" style="fill: #1f77b4; stroke: #1f77b4"/>
     <use xlink:href="#m3f2a871a69" x="1618.266854" y="633.635169" style="fill: #1f77b4; stroke: #1f77b4"/>
     <use xlink:href="#m3f2a871a69" x="1628.364867" y="649.867317" style="fill: #1f77b4; stroke: #1f77b4"/>
     <use xlink:href="#m3f2a871a69" x="1638.462879" y="666.307569" style="fill: #1f77b4; stroke: #1f77b4"/>
     <use xlink:href="#m3f2a871a69" x="1648.560891" y="675.776322" style="fill: #1f77b4; stroke: #1f77b4"/>
     <use xlink:href="#m3f2a871a69" x="1658.658904" y="688.886903" style="fill: #1f77b4; stroke: #1f77b4"/>
     <use xlink:href="#m3f2a871a69" x="1668.756916" y="693.756547" style="fill: #1f77b4; stroke: #1f77b4"/>
    </g>
   </g>
   <g id="patch_161">
    <path d="M 95.082667 774.051052 
L 95.082667 71.33952 
" style="fill: none; stroke: #000000; stroke-width: 0.8; stroke-linejoin: miter; stroke-linecap: square"/>
   </g>
   <g id="patch_162">
    <path d="M 1747.925333 774.051052 
L 1747.925333 71.33952 
" style="fill: none; stroke: #000000; stroke-width: 0.8; stroke-linejoin: miter; stroke-linecap: square"/>
   </g>
   <g id="patch_163">
    <path d="M 95.082667 774.051052 
L 1747.925333 774.051052 
" style="fill: none; stroke: #000000; stroke-width: 0.8; stroke-linejoin: miter; stroke-linecap: square"/>
   </g>
   <g id="patch_164">
    <path d="M 95.082667 71.33952 
L 1747.925333 71.33952 
" style="fill: none; stroke: #000000; stroke-width: 0.8; stroke-linejoin: miter; stroke-linecap: square"/>
   </g>
  </g>
 </g>
 <defs>
  <clipPath id="p5b99f1ae89">
   <rect x="95.082667" y="71.33952" width="1652.842667" height="702.711532"/>
  </clipPath>
 </defs>
</svg>
